<?xml version="1.0" standalone="no"?>
 <!DOCTYPE svg PUBLIC "-//W3C//DTD SVG 1.1//EN" 
 "http://www.w3.org/Graphics/SVG/1.1/DTD/svg11.dtd"> 
<svg
  xmlns:svg="http://www.w3.org/2000/svg"
  xmlns="http://www.w3.org/2000/svg"
  xmlns:xlink="http://www.w3.org/1999/xlink"
  version="1.1"
  width="29.700220cm" height="21.000720cm" viewBox="0 0 116930 82680">
<title>SVG Picture created as display-Display.svg date 2020/10/25 03:21:12 </title>
  <desc>Picture generated by Eeschema-SVG </desc>
<g style="fill:#000000; fill-opacity:1;stroke:#000000; stroke-opacity:1;
stroke-linecap:round; stroke-linejoin:round;"
 transform="translate(0 0) scale(1 1)">
</g>
<g style="fill:#000000; fill-opacity:0.0; 
stroke:#000000; stroke-width:-10; stroke-opacity:1; 
stroke-linecap:round; stroke-linejoin:round;">
</g>
<g style="fill:#D3D3D3; fill-opacity:0.0; 
stroke:#D3D3D3; stroke-width:-10; stroke-opacity:1; 
stroke-linecap:round; stroke-linejoin:round;">
</g>
<g style="fill:#D3D3D3; fill-opacity:0.0; 
stroke:#D3D3D3; stroke-width:100; stroke-opacity:1; 
stroke-linecap:round; stroke-linejoin:round;">
</g>
<g style="fill:#D3D3D3; fill-opacity:0.0; 
stroke:#D3D3D3; stroke-width:60; stroke-opacity:1; 
stroke-linecap:round; stroke-linejoin:round;">
<rect x="69690" y="65360" width="42520" height="12600" rx="0" />
</g>
<g style="fill:#D3D3D3; fill-opacity:0.0; 
stroke:#D3D3D3; stroke-width:100; stroke-opacity:1; 
stroke-linecap:round; stroke-linejoin:round;">
</g>
<g style="fill:#D3D3D3; fill-opacity:0.0; 
stroke:#D3D3D3; stroke-width:60; stroke-opacity:1; 
stroke-linecap:round; stroke-linejoin:round;">
<rect x="3940" y="3940" width="109050" height="74800" rx="0" />
</g>
<g style="fill:#D3D3D3; fill-opacity:0.0; 
stroke:#D3D3D3; stroke-width:100; stroke-opacity:1; 
stroke-linecap:round; stroke-linejoin:round;">
</g>
<g style="fill:#D3D3D3; fill-opacity:0.0; 
stroke:#D3D3D3; stroke-width:60; stroke-opacity:1; 
stroke-linecap:round; stroke-linejoin:round;">
<rect x="4720" y="4720" width="107490" height="73240" rx="0" />
</g>
<g style="fill:#D3D3D3; fill-opacity:0.0; 
stroke:#D3D3D3; stroke-width:100; stroke-opacity:1; 
stroke-linecap:round; stroke-linejoin:round;">
</g>
<g style="fill:#D3D3D3; fill-opacity:0.0; 
stroke:#D3D3D3; stroke-width:60; stroke-opacity:1; 
stroke-linecap:round; stroke-linejoin:round;">
<path d="M23620 4720
L23620 3940
" />
</g>
<g style="fill:#D3D3D3; fill-opacity:0.0; 
stroke:#D3D3D3; stroke-width:100; stroke-opacity:1; 
stroke-linecap:round; stroke-linejoin:round;">
</g>
<g style="fill:#D3D3D3; fill-opacity:0.0; 
stroke:#D3D3D3; stroke-width:60; stroke-opacity:1; 
stroke-linecap:round; stroke-linejoin:round;">
<path d="M43310 4720
L43310 3940
" />
</g>
<g style="fill:#D3D3D3; fill-opacity:0.0; 
stroke:#D3D3D3; stroke-width:100; stroke-opacity:1; 
stroke-linecap:round; stroke-linejoin:round;">
</g>
<g style="fill:#D3D3D3; fill-opacity:0.0; 
stroke:#D3D3D3; stroke-width:60; stroke-opacity:1; 
stroke-linecap:round; stroke-linejoin:round;">
<path d="M62990 4720
L62990 3940
" />
</g>
<g style="fill:#D3D3D3; fill-opacity:0.0; 
stroke:#D3D3D3; stroke-width:100; stroke-opacity:1; 
stroke-linecap:round; stroke-linejoin:round;">
</g>
<g style="fill:#D3D3D3; fill-opacity:0.0; 
stroke:#D3D3D3; stroke-width:60; stroke-opacity:1; 
stroke-linecap:round; stroke-linejoin:round;">
<path d="M82680 4720
L82680 3940
" />
</g>
<g style="fill:#D3D3D3; fill-opacity:0.0; 
stroke:#D3D3D3; stroke-width:100; stroke-opacity:1; 
stroke-linecap:round; stroke-linejoin:round;">
</g>
<g style="fill:#D3D3D3; fill-opacity:0.0; 
stroke:#D3D3D3; stroke-width:60; stroke-opacity:1; 
stroke-linecap:round; stroke-linejoin:round;">
<path d="M102360 4720
L102360 3940
" />
</g>
<g style="fill:#D3D3D3; fill-opacity:0.0; 
stroke:#D3D3D3; stroke-width:100; stroke-opacity:1; 
stroke-linecap:round; stroke-linejoin:round;">
</g>
<g style="fill:#D3D3D3; fill-opacity:0.0; 
stroke:#D3D3D3; stroke-width:60; stroke-opacity:1; 
stroke-linecap:round; stroke-linejoin:round;">
<text x="13780" y="4580"
textLength="550" font-size="680" lengthAdjust="spacingAndGlyphs"
text-anchor="start" opacity="0">1</text>
<path d="M14190 4560
L13900 4560
" />
<path d="M14050 4560
L14050 4050
L14000 4120
L13950 4170
L13900 4190
" />
</g>
<g style="fill:#D3D3D3; fill-opacity:0.0; 
stroke:#D3D3D3; stroke-width:100; stroke-opacity:1; 
stroke-linecap:round; stroke-linejoin:round;">
</g>
<g style="fill:#D3D3D3; fill-opacity:0.0; 
stroke:#D3D3D3; stroke-width:60; stroke-opacity:1; 
stroke-linecap:round; stroke-linejoin:round;">
<text x="33460" y="4580"
textLength="550" font-size="680" lengthAdjust="spacingAndGlyphs"
text-anchor="start" opacity="0">2</text>
<path d="M33580 4090
L33610 4070
L33660 4050
L33780 4050
L33830 4070
L33850 4090
L33870 4140
L33870 4190
L33850 4260
L33560 4560
L33870 4560
" />
</g>
<g style="fill:#D3D3D3; fill-opacity:0.0; 
stroke:#D3D3D3; stroke-width:100; stroke-opacity:1; 
stroke-linecap:round; stroke-linejoin:round;">
</g>
<g style="fill:#D3D3D3; fill-opacity:0.0; 
stroke:#D3D3D3; stroke-width:60; stroke-opacity:1; 
stroke-linecap:round; stroke-linejoin:round;">
<text x="53150" y="4580"
textLength="550" font-size="680" lengthAdjust="spacingAndGlyphs"
text-anchor="start" opacity="0">3</text>
<path d="M53250 4050
L53560 4050
L53390 4240
L53470 4240
L53520 4260
L53540 4290
L53560 4340
L53560 4460
L53540 4510
L53520 4530
L53470 4560
L53320 4560
L53270 4530
L53250 4510
" />
</g>
<g style="fill:#D3D3D3; fill-opacity:0.0; 
stroke:#D3D3D3; stroke-width:100; stroke-opacity:1; 
stroke-linecap:round; stroke-linejoin:round;">
</g>
<g style="fill:#D3D3D3; fill-opacity:0.0; 
stroke:#D3D3D3; stroke-width:60; stroke-opacity:1; 
stroke-linecap:round; stroke-linejoin:round;">
<text x="72830" y="4580"
textLength="550" font-size="680" lengthAdjust="spacingAndGlyphs"
text-anchor="start" opacity="0">4</text>
<path d="M73200 4220
L73200 4560
" />
<path d="M73070 4020
L72950 4390
L73270 4390
" />
</g>
<g style="fill:#D3D3D3; fill-opacity:0.0; 
stroke:#D3D3D3; stroke-width:100; stroke-opacity:1; 
stroke-linecap:round; stroke-linejoin:round;">
</g>
<g style="fill:#D3D3D3; fill-opacity:0.0; 
stroke:#D3D3D3; stroke-width:60; stroke-opacity:1; 
stroke-linecap:round; stroke-linejoin:round;">
<text x="92520" y="4580"
textLength="550" font-size="680" lengthAdjust="spacingAndGlyphs"
text-anchor="start" opacity="0">5</text>
<path d="M92910 4050
L92670 4050
L92640 4290
L92670 4260
L92720 4240
L92840 4240
L92890 4260
L92910 4290
L92930 4340
L92930 4460
L92910 4510
L92890 4530
L92840 4560
L92720 4560
L92670 4530
L92640 4510
" />
</g>
<g style="fill:#D3D3D3; fill-opacity:0.0; 
stroke:#D3D3D3; stroke-width:100; stroke-opacity:1; 
stroke-linecap:round; stroke-linejoin:round;">
</g>
<g style="fill:#D3D3D3; fill-opacity:0.0; 
stroke:#D3D3D3; stroke-width:60; stroke-opacity:1; 
stroke-linecap:round; stroke-linejoin:round;">
<text x="112200" y="4580"
textLength="550" font-size="680" lengthAdjust="spacingAndGlyphs"
text-anchor="start" opacity="0">6</text>
<path d="M112570 4050
L112470 4050
L112420 4070
L112400 4090
L112350 4170
L112320 4260
L112320 4460
L112350 4510
L112370 4530
L112420 4560
L112520 4560
L112570 4530
L112590 4510
L112610 4460
L112610 4340
L112590 4290
L112570 4260
L112520 4240
L112420 4240
L112370 4260
L112350 4290
L112320 4340
" />
</g>
<g style="fill:#D3D3D3; fill-opacity:0.0; 
stroke:#D3D3D3; stroke-width:100; stroke-opacity:1; 
stroke-linecap:round; stroke-linejoin:round;">
</g>
<g style="fill:#D3D3D3; fill-opacity:0.0; 
stroke:#D3D3D3; stroke-width:60; stroke-opacity:1; 
stroke-linecap:round; stroke-linejoin:round;">
<path d="M23620 77960
L23620 78740
" />
</g>
<g style="fill:#D3D3D3; fill-opacity:0.0; 
stroke:#D3D3D3; stroke-width:100; stroke-opacity:1; 
stroke-linecap:round; stroke-linejoin:round;">
</g>
<g style="fill:#D3D3D3; fill-opacity:0.0; 
stroke:#D3D3D3; stroke-width:60; stroke-opacity:1; 
stroke-linecap:round; stroke-linejoin:round;">
<path d="M43310 77960
L43310 78740
" />
</g>
<g style="fill:#D3D3D3; fill-opacity:0.0; 
stroke:#D3D3D3; stroke-width:100; stroke-opacity:1; 
stroke-linecap:round; stroke-linejoin:round;">
</g>
<g style="fill:#D3D3D3; fill-opacity:0.0; 
stroke:#D3D3D3; stroke-width:60; stroke-opacity:1; 
stroke-linecap:round; stroke-linejoin:round;">
<path d="M62990 77960
L62990 78740
" />
</g>
<g style="fill:#D3D3D3; fill-opacity:0.0; 
stroke:#D3D3D3; stroke-width:100; stroke-opacity:1; 
stroke-linecap:round; stroke-linejoin:round;">
</g>
<g style="fill:#D3D3D3; fill-opacity:0.0; 
stroke:#D3D3D3; stroke-width:60; stroke-opacity:1; 
stroke-linecap:round; stroke-linejoin:round;">
<path d="M82680 77960
L82680 78740
" />
</g>
<g style="fill:#D3D3D3; fill-opacity:0.0; 
stroke:#D3D3D3; stroke-width:100; stroke-opacity:1; 
stroke-linecap:round; stroke-linejoin:round;">
</g>
<g style="fill:#D3D3D3; fill-opacity:0.0; 
stroke:#D3D3D3; stroke-width:60; stroke-opacity:1; 
stroke-linecap:round; stroke-linejoin:round;">
<path d="M102360 77960
L102360 78740
" />
</g>
<g style="fill:#D3D3D3; fill-opacity:0.0; 
stroke:#D3D3D3; stroke-width:100; stroke-opacity:1; 
stroke-linecap:round; stroke-linejoin:round;">
</g>
<g style="fill:#D3D3D3; fill-opacity:0.0; 
stroke:#D3D3D3; stroke-width:60; stroke-opacity:1; 
stroke-linecap:round; stroke-linejoin:round;">
<text x="13780" y="78600"
textLength="550" font-size="680" lengthAdjust="spacingAndGlyphs"
text-anchor="start" opacity="0">1</text>
<path d="M14190 78580
L13900 78580
" />
<path d="M14050 78580
L14050 78070
L14000 78140
L13950 78190
L13900 78210
" />
</g>
<g style="fill:#D3D3D3; fill-opacity:0.0; 
stroke:#D3D3D3; stroke-width:100; stroke-opacity:1; 
stroke-linecap:round; stroke-linejoin:round;">
</g>
<g style="fill:#D3D3D3; fill-opacity:0.0; 
stroke:#D3D3D3; stroke-width:60; stroke-opacity:1; 
stroke-linecap:round; stroke-linejoin:round;">
<text x="33460" y="78600"
textLength="550" font-size="680" lengthAdjust="spacingAndGlyphs"
text-anchor="start" opacity="0">2</text>
<path d="M33580 78110
L33610 78090
L33660 78070
L33780 78070
L33830 78090
L33850 78110
L33870 78160
L33870 78210
L33850 78280
L33560 78580
L33870 78580
" />
</g>
<g style="fill:#D3D3D3; fill-opacity:0.0; 
stroke:#D3D3D3; stroke-width:100; stroke-opacity:1; 
stroke-linecap:round; stroke-linejoin:round;">
</g>
<g style="fill:#D3D3D3; fill-opacity:0.0; 
stroke:#D3D3D3; stroke-width:60; stroke-opacity:1; 
stroke-linecap:round; stroke-linejoin:round;">
<text x="53150" y="78600"
textLength="550" font-size="680" lengthAdjust="spacingAndGlyphs"
text-anchor="start" opacity="0">3</text>
<path d="M53250 78070
L53560 78070
L53390 78260
L53470 78260
L53520 78280
L53540 78310
L53560 78360
L53560 78480
L53540 78530
L53520 78550
L53470 78580
L53320 78580
L53270 78550
L53250 78530
" />
</g>
<g style="fill:#D3D3D3; fill-opacity:0.0; 
stroke:#D3D3D3; stroke-width:100; stroke-opacity:1; 
stroke-linecap:round; stroke-linejoin:round;">
</g>
<g style="fill:#D3D3D3; fill-opacity:0.0; 
stroke:#D3D3D3; stroke-width:60; stroke-opacity:1; 
stroke-linecap:round; stroke-linejoin:round;">
<text x="72830" y="78600"
textLength="550" font-size="680" lengthAdjust="spacingAndGlyphs"
text-anchor="start" opacity="0">4</text>
<path d="M73200 78240
L73200 78580
" />
<path d="M73070 78040
L72950 78410
L73270 78410
" />
</g>
<g style="fill:#D3D3D3; fill-opacity:0.0; 
stroke:#D3D3D3; stroke-width:100; stroke-opacity:1; 
stroke-linecap:round; stroke-linejoin:round;">
</g>
<g style="fill:#D3D3D3; fill-opacity:0.0; 
stroke:#D3D3D3; stroke-width:60; stroke-opacity:1; 
stroke-linecap:round; stroke-linejoin:round;">
<text x="92520" y="78600"
textLength="550" font-size="680" lengthAdjust="spacingAndGlyphs"
text-anchor="start" opacity="0">5</text>
<path d="M92910 78070
L92670 78070
L92640 78310
L92670 78280
L92720 78260
L92840 78260
L92890 78280
L92910 78310
L92930 78360
L92930 78480
L92910 78530
L92890 78550
L92840 78580
L92720 78580
L92670 78550
L92640 78530
" />
</g>
<g style="fill:#D3D3D3; fill-opacity:0.0; 
stroke:#D3D3D3; stroke-width:100; stroke-opacity:1; 
stroke-linecap:round; stroke-linejoin:round;">
</g>
<g style="fill:#D3D3D3; fill-opacity:0.0; 
stroke:#D3D3D3; stroke-width:60; stroke-opacity:1; 
stroke-linecap:round; stroke-linejoin:round;">
<text x="112200" y="78600"
textLength="550" font-size="680" lengthAdjust="spacingAndGlyphs"
text-anchor="start" opacity="0">6</text>
<path d="M112570 78070
L112470 78070
L112420 78090
L112400 78110
L112350 78190
L112320 78280
L112320 78480
L112350 78530
L112370 78550
L112420 78580
L112520 78580
L112570 78550
L112590 78530
L112610 78480
L112610 78360
L112590 78310
L112570 78280
L112520 78260
L112420 78260
L112370 78280
L112350 78310
L112320 78360
" />
</g>
<g style="fill:#D3D3D3; fill-opacity:0.0; 
stroke:#D3D3D3; stroke-width:100; stroke-opacity:1; 
stroke-linecap:round; stroke-linejoin:round;">
</g>
<g style="fill:#D3D3D3; fill-opacity:0.0; 
stroke:#D3D3D3; stroke-width:60; stroke-opacity:1; 
stroke-linecap:round; stroke-linejoin:round;">
<path d="M3940 23620
L4720 23620
" />
</g>
<g style="fill:#D3D3D3; fill-opacity:0.0; 
stroke:#D3D3D3; stroke-width:100; stroke-opacity:1; 
stroke-linecap:round; stroke-linejoin:round;">
</g>
<g style="fill:#D3D3D3; fill-opacity:0.0; 
stroke:#D3D3D3; stroke-width:60; stroke-opacity:1; 
stroke-linecap:round; stroke-linejoin:round;">
<path d="M3940 43310
L4720 43310
" />
</g>
<g style="fill:#D3D3D3; fill-opacity:0.0; 
stroke:#D3D3D3; stroke-width:100; stroke-opacity:1; 
stroke-linecap:round; stroke-linejoin:round;">
</g>
<g style="fill:#D3D3D3; fill-opacity:0.0; 
stroke:#D3D3D3; stroke-width:60; stroke-opacity:1; 
stroke-linecap:round; stroke-linejoin:round;">
<path d="M3940 62990
L4720 62990
" />
</g>
<g style="fill:#D3D3D3; fill-opacity:0.0; 
stroke:#D3D3D3; stroke-width:100; stroke-opacity:1; 
stroke-linecap:round; stroke-linejoin:round;">
</g>
<g style="fill:#D3D3D3; fill-opacity:0.0; 
stroke:#D3D3D3; stroke-width:60; stroke-opacity:1; 
stroke-linecap:round; stroke-linejoin:round;">
<text x="4330" y="14030"
textLength="500" font-size="680" lengthAdjust="spacingAndGlyphs"
text-anchor="middle" opacity="0">A</text>
<path d="M4200 13860
L4450 13860
" />
<path d="M4160 14010
L4330 13500
L4500 14010
" />
</g>
<g style="fill:#D3D3D3; fill-opacity:0.0; 
stroke:#D3D3D3; stroke-width:100; stroke-opacity:1; 
stroke-linecap:round; stroke-linejoin:round;">
</g>
<g style="fill:#D3D3D3; fill-opacity:0.0; 
stroke:#D3D3D3; stroke-width:60; stroke-opacity:1; 
stroke-linecap:round; stroke-linejoin:round;">
<text x="4330" y="33710"
textLength="570" font-size="680" lengthAdjust="spacingAndGlyphs"
text-anchor="middle" opacity="0">B</text>
<path d="M4360 33420
L4430 33440
L4460 33470
L4480 33520
L4480 33590
L4460 33640
L4430 33660
L4390 33690
L4190 33690
L4190 33180
L4360 33180
L4410 33200
L4430 33220
L4460 33270
L4460 33320
L4430 33370
L4410 33390
L4360 33420
L4190 33420
" />
</g>
<g style="fill:#D3D3D3; fill-opacity:0.0; 
stroke:#D3D3D3; stroke-width:100; stroke-opacity:1; 
stroke-linecap:round; stroke-linejoin:round;">
</g>
<g style="fill:#D3D3D3; fill-opacity:0.0; 
stroke:#D3D3D3; stroke-width:60; stroke-opacity:1; 
stroke-linecap:round; stroke-linejoin:round;">
<text x="4330" y="53400"
textLength="570" font-size="680" lengthAdjust="spacingAndGlyphs"
text-anchor="middle" opacity="0">C</text>
<path d="M4480 53330
L4460 53350
L4390 53380
L4340 53380
L4260 53350
L4220 53300
L4190 53250
L4170 53160
L4170 53080
L4190 52990
L4220 52940
L4260 52890
L4340 52870
L4390 52870
L4460 52890
L4480 52910
" />
</g>
<g style="fill:#D3D3D3; fill-opacity:0.0; 
stroke:#D3D3D3; stroke-width:100; stroke-opacity:1; 
stroke-linecap:round; stroke-linejoin:round;">
</g>
<g style="fill:#D3D3D3; fill-opacity:0.0; 
stroke:#D3D3D3; stroke-width:60; stroke-opacity:1; 
stroke-linecap:round; stroke-linejoin:round;">
<text x="4330" y="73080"
textLength="570" font-size="680" lengthAdjust="spacingAndGlyphs"
text-anchor="middle" opacity="0">D</text>
<path d="M4190 73060
L4190 72550
L4310 72550
L4390 72570
L4430 72620
L4460 72670
L4480 72760
L4480 72840
L4460 72930
L4430 72980
L4390 73030
L4310 73060
L4190 73060
" />
</g>
<g style="fill:#D3D3D3; fill-opacity:0.0; 
stroke:#D3D3D3; stroke-width:100; stroke-opacity:1; 
stroke-linecap:round; stroke-linejoin:round;">
</g>
<g style="fill:#D3D3D3; fill-opacity:0.0; 
stroke:#D3D3D3; stroke-width:60; stroke-opacity:1; 
stroke-linecap:round; stroke-linejoin:round;">
<path d="M112990 23620
L112210 23620
" />
</g>
<g style="fill:#D3D3D3; fill-opacity:0.0; 
stroke:#D3D3D3; stroke-width:100; stroke-opacity:1; 
stroke-linecap:round; stroke-linejoin:round;">
</g>
<g style="fill:#D3D3D3; fill-opacity:0.0; 
stroke:#D3D3D3; stroke-width:60; stroke-opacity:1; 
stroke-linecap:round; stroke-linejoin:round;">
<path d="M112990 43310
L112210 43310
" />
</g>
<g style="fill:#D3D3D3; fill-opacity:0.0; 
stroke:#D3D3D3; stroke-width:100; stroke-opacity:1; 
stroke-linecap:round; stroke-linejoin:round;">
</g>
<g style="fill:#D3D3D3; fill-opacity:0.0; 
stroke:#D3D3D3; stroke-width:60; stroke-opacity:1; 
stroke-linecap:round; stroke-linejoin:round;">
<path d="M112990 62990
L112210 62990
" />
</g>
<g style="fill:#D3D3D3; fill-opacity:0.0; 
stroke:#D3D3D3; stroke-width:100; stroke-opacity:1; 
stroke-linecap:round; stroke-linejoin:round;">
</g>
<g style="fill:#D3D3D3; fill-opacity:0.0; 
stroke:#D3D3D3; stroke-width:60; stroke-opacity:1; 
stroke-linecap:round; stroke-linejoin:round;">
<text x="112600" y="14030"
textLength="500" font-size="680" lengthAdjust="spacingAndGlyphs"
text-anchor="middle" opacity="0">A</text>
<path d="M112470 13860
L112720 13860
" />
<path d="M112430 14010
L112600 13500
L112770 14010
" />
</g>
<g style="fill:#D3D3D3; fill-opacity:0.0; 
stroke:#D3D3D3; stroke-width:100; stroke-opacity:1; 
stroke-linecap:round; stroke-linejoin:round;">
</g>
<g style="fill:#D3D3D3; fill-opacity:0.0; 
stroke:#D3D3D3; stroke-width:60; stroke-opacity:1; 
stroke-linecap:round; stroke-linejoin:round;">
<text x="112600" y="33710"
textLength="570" font-size="680" lengthAdjust="spacingAndGlyphs"
text-anchor="middle" opacity="0">B</text>
<path d="M112630 33420
L112700 33440
L112730 33470
L112750 33520
L112750 33590
L112730 33640
L112700 33660
L112660 33690
L112460 33690
L112460 33180
L112630 33180
L112680 33200
L112700 33220
L112730 33270
L112730 33320
L112700 33370
L112680 33390
L112630 33420
L112460 33420
" />
</g>
<g style="fill:#D3D3D3; fill-opacity:0.0; 
stroke:#D3D3D3; stroke-width:100; stroke-opacity:1; 
stroke-linecap:round; stroke-linejoin:round;">
</g>
<g style="fill:#D3D3D3; fill-opacity:0.0; 
stroke:#D3D3D3; stroke-width:60; stroke-opacity:1; 
stroke-linecap:round; stroke-linejoin:round;">
<text x="112600" y="53400"
textLength="570" font-size="680" lengthAdjust="spacingAndGlyphs"
text-anchor="middle" opacity="0">C</text>
<path d="M112750 53330
L112730 53350
L112660 53380
L112610 53380
L112530 53350
L112490 53300
L112460 53250
L112440 53160
L112440 53080
L112460 52990
L112490 52940
L112530 52890
L112610 52870
L112660 52870
L112730 52890
L112750 52910
" />
</g>
<g style="fill:#D3D3D3; fill-opacity:0.0; 
stroke:#D3D3D3; stroke-width:100; stroke-opacity:1; 
stroke-linecap:round; stroke-linejoin:round;">
</g>
<g style="fill:#D3D3D3; fill-opacity:0.0; 
stroke:#D3D3D3; stroke-width:60; stroke-opacity:1; 
stroke-linecap:round; stroke-linejoin:round;">
<text x="112600" y="73080"
textLength="570" font-size="680" lengthAdjust="spacingAndGlyphs"
text-anchor="middle" opacity="0">D</text>
<path d="M112460 73060
L112460 72550
L112580 72550
L112660 72570
L112700 72620
L112730 72670
L112750 72760
L112750 72840
L112730 72930
L112700 72980
L112660 73030
L112580 73060
L112460 73060
" />
</g>
<g style="fill:#D3D3D3; fill-opacity:0.0; 
stroke:#D3D3D3; stroke-width:100; stroke-opacity:1; 
stroke-linecap:round; stroke-linejoin:round;">
</g>
<g style="fill:#D3D3D3; fill-opacity:0.0; 
stroke:#D3D3D3; stroke-width:60; stroke-opacity:1; 
stroke-linecap:round; stroke-linejoin:round;">
<text x="78740" y="76320"
textLength="2760" font-size="780" lengthAdjust="spacingAndGlyphs"
text-anchor="start" opacity="0">Date: </text>
<path d="M78910 76290
L78910 75700
L79050 75700
L79130 75730
L79190 75790
L79210 75840
L79240 75950
L79240 76040
L79210 76150
L79190 76210
L79130 76260
L79050 76290
L78910 76290
" />
<path d="M79750 76290
L79750 75980
L79720 75930
L79660 75900
L79550 75900
L79500 75930
" />
<path d="M79750 76260
L79690 76290
L79550 76290
L79500 76260
L79470 76210
L79470 76150
L79500 76100
L79550 76070
L79690 76070
L79750 76040
" />
<path d="M79950 75900
L80170 75900
" />
<path d="M80030 75700
L80030 76210
L80060 76260
L80110 76290
L80170 76290
" />
<path d="M80590 76260
L80540 76290
L80420 76290
L80370 76260
L80340 76210
L80340 75980
L80370 75930
L80420 75900
L80540 75900
L80590 75930
L80620 75980
L80620 76040
L80340 76100
" />
<path d="M80870 76240
L80900 76260
L80870 76290
L80840 76260
L80870 76240
L80870 76290
" />
<path d="M80870 75930
L80900 75950
L80870 75980
L80840 75950
L80870 75930
L80870 75980
" />
</g>
<g style="fill:#D3D3D3; fill-opacity:0.0; 
stroke:#D3D3D3; stroke-width:100; stroke-opacity:1; 
stroke-linecap:round; stroke-linejoin:round;">
</g>
<g style="fill:#D3D3D3; fill-opacity:0.0; 
stroke:#D3D3D3; stroke-width:60; stroke-opacity:1; 
stroke-linecap:round; stroke-linejoin:round;">
<path d="M69690 76580
L112210 76580
" />
</g>
<g style="fill:#D3D3D3; fill-opacity:0.0; 
stroke:#D3D3D3; stroke-width:100; stroke-opacity:1; 
stroke-linecap:round; stroke-linejoin:round;">
</g>
<g style="fill:#D3D3D3; fill-opacity:0.0; 
stroke:#D3D3D3; stroke-width:60; stroke-opacity:1; 
stroke-linecap:round; stroke-linejoin:round;">
<text x="70080" y="77420"
textLength="24640" font-size="780" lengthAdjust="spacingAndGlyphs"
text-anchor="start" opacity="0">KiCad E.D.A.  kicad 5.1.7-a382d34a8~87~ubuntu20.04.1</text>
<path d="M70250 77390
L70250 76800
" />
<path d="M70580 77390
L70330 77050
" />
<path d="M70580 76800
L70250 77140
" />
<path d="M70840 77390
L70840 77000
" />
<path d="M70840 76800
L70810 76830
L70840 76860
L70860 76830
L70840 76800
L70840 76860
" />
<path d="M71450 77340
L71430 77360
L71340 77390
L71290 77390
L71200 77360
L71140 77310
L71120 77250
L71090 77140
L71090 77050
L71120 76940
L71140 76890
L71200 76830
L71290 76800
L71340 76800
L71430 76830
L71450 76860
" />
<path d="M71960 77390
L71960 77080
L71930 77030
L71880 77000
L71760 77000
L71710 77030
" />
<path d="M71960 77360
L71900 77390
L71760 77390
L71710 77360
L71680 77310
L71680 77250
L71710 77200
L71760 77170
L71900 77170
L71960 77140
" />
<path d="M72490 77390
L72490 76800
" />
<path d="M72490 77360
L72440 77390
L72320 77390
L72270 77360
L72240 77340
L72210 77280
L72210 77110
L72240 77050
L72270 77030
L72320 77000
L72440 77000
L72490 77030
" />
<path d="M73220 77080
L73420 77080
" />
<path d="M73500 77390
L73220 77390
L73220 76800
L73500 76800
" />
<path d="M73760 77340
L73790 77360
L73760 77390
L73730 77360
L73760 77340
L73760 77390
" />
<path d="M74040 77390
L74040 76800
L74180 76800
L74260 76830
L74320 76890
L74350 76940
L74380 77050
L74380 77140
L74350 77250
L74320 77310
L74260 77360
L74180 77390
L74040 77390
" />
<path d="M74630 77340
L74660 77360
L74630 77390
L74600 77360
L74630 77340
L74630 77390
" />
<path d="M74880 77220
L75160 77220
" />
<path d="M74830 77390
L75020 76800
L75220 77390
" />
<path d="M75420 77340
L75440 77360
L75420 77390
L75390 77360
L75420 77340
L75420 77390
" />
<path d="M76600 77390
L76600 76800
" />
<path d="M76650 77170
L76820 77390
" />
<path d="M76820 77000
L76600 77220
" />
<path d="M77070 77390
L77070 77000
" />
<path d="M77070 76800
L77040 76830
L77070 76860
L77100 76830
L77070 76800
L77070 76860
" />
<path d="M77610 77360
L77550 77390
L77440 77390
L77380 77360
L77350 77340
L77330 77280
L77330 77110
L77350 77050
L77380 77030
L77440 77000
L77550 77000
L77610 77030
" />
<path d="M78110 77390
L78110 77080
L78080 77030
L78030 77000
L77920 77000
L77860 77030
" />
<path d="M78110 77360
L78060 77390
L77920 77390
L77860 77360
L77830 77310
L77830 77250
L77860 77200
L77920 77170
L78060 77170
L78110 77140
" />
<path d="M78650 77390
L78650 76800
" />
<path d="M78650 77360
L78590 77390
L78480 77390
L78420 77360
L78390 77340
L78370 77280
L78370 77110
L78390 77050
L78420 77030
L78480 77000
L78590 77000
L78650 77030
" />
<path d="M79660 76800
L79380 76800
L79350 77080
L79380 77050
L79430 77030
L79570 77030
L79630 77050
L79660 77080
L79690 77140
L79690 77280
L79660 77340
L79630 77360
L79570 77390
L79430 77390
L79380 77360
L79350 77340
" />
<path d="M79940 77340
L79970 77360
L79940 77390
L79910 77360
L79940 77340
L79940 77390
" />
<path d="M80530 77390
L80190 77390
" />
<path d="M80360 77390
L80360 76800
L80300 76890
L80250 76940
L80190 76970
" />
<path d="M80780 77340
L80810 77360
L80780 77390
L80750 77360
L80780 77340
L80780 77390
" />
<path d="M81010 76800
L81400 76800
L81150 77390
" />
<path d="M81620 77170
L82070 77170
" />
<path d="M82610 77390
L82610 77080
L82580 77030
L82520 77000
L82410 77000
L82350 77030
" />
<path d="M82610 77360
L82550 77390
L82410 77390
L82350 77360
L82330 77310
L82330 77250
L82350 77200
L82410 77170
L82550 77170
L82610 77140
" />
<path d="M82830 76800
L83200 76800
L83000 77030
L83090 77030
L83140 77050
L83170 77080
L83200 77140
L83200 77280
L83170 77340
L83140 77360
L83090 77390
L82920 77390
L82860 77360
L82830 77340
" />
<path d="M83530 77050
L83480 77030
L83450 77000
L83420 76940
L83420 76910
L83450 76860
L83480 76830
L83530 76800
L83650 76800
L83700 76830
L83730 76860
L83760 76910
L83760 76940
L83730 77000
L83700 77030
L83650 77050
L83530 77050
L83480 77080
L83450 77110
L83420 77170
L83420 77280
L83450 77340
L83480 77360
L83530 77390
L83650 77390
L83700 77360
L83730 77340
L83760 77280
L83760 77170
L83730 77110
L83700 77080
L83650 77050
" />
<path d="M83980 76860
L84010 76830
L84070 76800
L84210 76800
L84270 76830
L84290 76860
L84320 76910
L84320 76970
L84290 77050
L83960 77390
L84320 77390
" />
<path d="M84830 77390
L84830 76800
" />
<path d="M84830 77360
L84770 77390
L84660 77390
L84600 77360
L84570 77340
L84550 77280
L84550 77110
L84570 77050
L84600 77030
L84660 77000
L84770 77000
L84830 77030
" />
<path d="M85050 76800
L85420 76800
L85220 77030
L85300 77030
L85360 77050
L85390 77080
L85420 77140
L85420 77280
L85390 77340
L85360 77360
L85300 77390
L85140 77390
L85080 77360
L85050 77340
" />
<path d="M85920 77000
L85920 77390
" />
<path d="M85780 76770
L85640 77200
L86010 77200
" />
<path d="M86480 77390
L86480 77080
L86460 77030
L86400 77000
L86290 77000
L86230 77030
" />
<path d="M86480 77360
L86430 77390
L86290 77390
L86230 77360
L86200 77310
L86200 77250
L86230 77200
L86290 77170
L86430 77170
L86480 77140
" />
<path d="M86850 77050
L86790 77030
L86770 77000
L86740 76940
L86740 76910
L86770 76860
L86790 76830
L86850 76800
L86960 76800
L87020 76830
L87050 76860
L87070 76910
L87070 76940
L87050 77000
L87020 77030
L86960 77050
L86850 77050
L86790 77080
L86770 77110
L86740 77170
L86740 77280
L86770 77340
L86790 77360
L86850 77390
L86960 77390
L87020 77360
L87050 77340
L87070 77280
L87070 77170
L87050 77110
L87020 77080
L86960 77050
" />
<path d="M87190 76640
L87750 76640
" />
<path d="M87410 77050
L87360 77030
L87330 77000
L87300 76940
L87300 76910
L87330 76860
L87360 76830
L87410 76800
L87520 76800
L87580 76830
L87610 76860
L87640 76910
L87640 76940
L87610 77000
L87580 77030
L87520 77050
L87410 77050
L87360 77080
L87330 77110
L87300 77170
L87300 77280
L87330 77340
L87360 77360
L87410 77390
L87520 77390
L87580 77360
L87610 77340
L87640 77280
L87640 77170
L87610 77110
L87580 77080
L87520 77050
" />
<path d="M87750 76640
L88310 76640
" />
<path d="M87830 76800
L88230 76800
L87970 77390
" />
<path d="M88700 77000
L88700 77390
" />
<path d="M88450 77000
L88450 77310
L88480 77360
L88540 77390
L88620 77390
L88680 77360
L88700 77340
" />
<path d="M88990 77390
L88990 76800
" />
<path d="M88990 77030
L89040 77000
L89150 77000
L89210 77030
L89240 77050
L89270 77110
L89270 77280
L89240 77340
L89210 77360
L89150 77390
L89040 77390
L88990 77360
" />
<path d="M89770 77000
L89770 77390
" />
<path d="M89520 77000
L89520 77310
L89550 77360
L89600 77390
L89690 77390
L89740 77360
L89770 77340
" />
<path d="M90050 77000
L90050 77390
" />
<path d="M90050 77050
L90080 77030
L90140 77000
L90220 77000
L90280 77030
L90310 77080
L90310 77390
" />
<path d="M90500 77000
L90730 77000
" />
<path d="M90590 76800
L90590 77310
L90610 77360
L90670 77390
L90730 77390
" />
<path d="M91180 77000
L91180 77390
" />
<path d="M90920 77000
L90920 77310
L90950 77360
L91010 77390
L91090 77390
L91150 77360
L91180 77340
" />
<path d="M91430 76860
L91460 76830
L91510 76800
L91650 76800
L91710 76830
L91740 76860
L91770 76910
L91770 76970
L91740 77050
L91400 77390
L91770 77390
" />
<path d="M92130 76800
L92190 76800
L92240 76830
L92270 76860
L92300 76910
L92330 77030
L92330 77170
L92300 77280
L92270 77340
L92240 77360
L92190 77390
L92130 77390
L92080 77360
L92050 77340
L92020 77280
L91990 77170
L91990 77030
L92020 76910
L92050 76860
L92080 76830
L92130 76800
" />
<path d="M92580 77340
L92610 77360
L92580 77390
L92550 77360
L92580 77340
L92580 77390
" />
<path d="M92970 76800
L93030 76800
L93090 76830
L93110 76860
L93140 76910
L93170 77030
L93170 77170
L93140 77280
L93110 77340
L93090 77360
L93030 77390
L92970 77390
L92920 77360
L92890 77340
L92860 77280
L92830 77170
L92830 77030
L92860 76910
L92890 76860
L92920 76830
L92970 76800
" />
<path d="M93680 77000
L93680 77390
" />
<path d="M93540 76770
L93400 77200
L93760 77200
" />
<path d="M93990 77340
L94010 77360
L93990 77390
L93960 77360
L93990 77340
L93990 77390
" />
<path d="M94580 77390
L94240 77390
" />
<path d="M94410 77390
L94410 76800
L94350 76890
L94290 76940
L94240 76970
" />
</g>
<g style="fill:#D3D3D3; fill-opacity:0.0; 
stroke:#D3D3D3; stroke-width:100; stroke-opacity:1; 
stroke-linecap:round; stroke-linejoin:round;">
</g>
<g style="fill:#D3D3D3; fill-opacity:0.0; 
stroke:#D3D3D3; stroke-width:60; stroke-opacity:1; 
stroke-linecap:round; stroke-linejoin:round;">
<path d="M69690 75400
L112210 75400
" />
</g>
<g style="fill:#D3D3D3; fill-opacity:0.0; 
stroke:#D3D3D3; stroke-width:100; stroke-opacity:1; 
stroke-linecap:round; stroke-linejoin:round;">
</g>
<g style="fill:#D3D3D3; fill-opacity:0.0; 
stroke:#D3D3D3; stroke-width:120; stroke-opacity:1; 
stroke-linecap:round; stroke-linejoin:round;">
<text x="103540" y="76320"
textLength="2340" font-size="780" lengthAdjust="spacingAndGlyphs"
text-anchor="start" opacity="0">Rev: </text>
<path d="M104090 76290
L103890 76010
" />
<path d="M103750 76290
L103750 75700
L103980 75700
L104030 75730
L104060 75760
L104090 75810
L104090 75900
L104060 75950
L104030 75980
L103980 76010
L103750 76010
" />
<path d="M104570 76260
L104510 76290
L104400 76290
L104340 76260
L104320 76210
L104320 75980
L104340 75930
L104400 75900
L104510 75900
L104570 75930
L104600 75980
L104600 76040
L104320 76100
" />
<path d="M104790 75900
L104930 76290
L105070 75900
" />
<path d="M105300 76240
L105330 76260
L105300 76290
L105270 76260
L105300 76240
L105300 76290
" />
<path d="M105300 75930
L105330 75950
L105300 75980
L105270 75950
L105300 75930
L105300 75980
" />
</g>
<g style="fill:#D3D3D3; fill-opacity:0.0; 
stroke:#D3D3D3; stroke-width:100; stroke-opacity:1; 
stroke-linecap:round; stroke-linejoin:round;">
</g>
<g style="fill:#D3D3D3; fill-opacity:0.0; 
stroke:#D3D3D3; stroke-width:60; stroke-opacity:1; 
stroke-linecap:round; stroke-linejoin:round;">
<text x="70080" y="76320"
textLength="3780" font-size="780" lengthAdjust="spacingAndGlyphs"
text-anchor="start" opacity="0">Size: A4</text>
<path d="M70220 76260
L70300 76290
L70440 76290
L70500 76260
L70530 76240
L70550 76180
L70550 76120
L70530 76070
L70500 76040
L70440 76010
L70330 75980
L70270 75950
L70250 75930
L70220 75870
L70220 75810
L70250 75760
L70270 75730
L70330 75700
L70470 75700
L70550 75730
" />
<path d="M70810 76290
L70810 75900
" />
<path d="M70810 75700
L70780 75730
L70810 75760
L70840 75730
L70810 75700
L70810 75760
" />
<path d="M71030 75900
L71340 75900
L71030 76290
L71340 76290
" />
<path d="M71790 76260
L71730 76290
L71620 76290
L71570 76260
L71540 76210
L71540 75980
L71570 75930
L71620 75900
L71730 75900
L71790 75930
L71820 75980
L71820 76040
L71540 76100
" />
<path d="M72070 76240
L72100 76260
L72070 76290
L72040 76260
L72070 76240
L72070 76290
" />
<path d="M72070 75930
L72100 75950
L72070 75980
L72040 75950
L72070 75930
L72070 75980
" />
<path d="M72770 76120
L73060 76120
" />
<path d="M72720 76290
L72910 75700
L73110 76290
" />
<path d="M73560 75900
L73560 76290
" />
<path d="M73420 75670
L73280 76100
L73650 76100
" />
</g>
<g style="fill:#D3D3D3; fill-opacity:0.0; 
stroke:#D3D3D3; stroke-width:100; stroke-opacity:1; 
stroke-linecap:round; stroke-linejoin:round;">
</g>
<g style="fill:#D3D3D3; fill-opacity:0.0; 
stroke:#D3D3D3; stroke-width:60; stroke-opacity:1; 
stroke-linecap:round; stroke-linejoin:round;">
<text x="103540" y="77420"
textLength="4470" font-size="780" lengthAdjust="spacingAndGlyphs"
text-anchor="start" opacity="0">Id: 23/23</text>
<path d="M103710 77390
L103710 76800
" />
<path d="M104240 77390
L104240 76800
" />
<path d="M104240 77360
L104180 77390
L104070 77390
L104010 77360
L103990 77340
L103960 77280
L103960 77110
L103990 77050
L104010 77030
L104070 77000
L104180 77000
L104240 77030
" />
<path d="M104520 77340
L104550 77360
L104520 77390
L104490 77360
L104520 77340
L104520 77390
" />
<path d="M104520 77030
L104550 77050
L104520 77080
L104490 77050
L104520 77030
L104520 77080
" />
<path d="M105220 76860
L105250 76830
L105310 76800
L105450 76800
L105500 76830
L105530 76860
L105560 76910
L105560 76970
L105530 77050
L105190 77390
L105560 77390
" />
<path d="M105760 76800
L106120 76800
L105930 77030
L106010 77030
L106070 77050
L106090 77080
L106120 77140
L106120 77280
L106090 77340
L106070 77360
L106010 77390
L105840 77390
L105780 77360
L105760 77340
" />
<path d="M106800 76770
L106290 77530
" />
<path d="M106960 76860
L106990 76830
L107050 76800
L107190 76800
L107250 76830
L107270 76860
L107300 76910
L107300 76970
L107270 77050
L106940 77390
L107300 77390
" />
<path d="M107500 76800
L107860 76800
L107670 77030
L107750 77030
L107810 77050
L107840 77080
L107860 77140
L107860 77280
L107840 77340
L107810 77360
L107750 77390
L107580 77390
L107530 77360
L107500 77340
" />
</g>
<g style="fill:#D3D3D3; fill-opacity:0.0; 
stroke:#D3D3D3; stroke-width:100; stroke-opacity:1; 
stroke-linecap:round; stroke-linejoin:round;">
</g>
<g style="fill:#D3D3D3; fill-opacity:0.0; 
stroke:#D3D3D3; stroke-width:60; stroke-opacity:1; 
stroke-linecap:round; stroke-linejoin:round;">
<path d="M69690 73820
L112210 73820
" />
</g>
<g style="fill:#D3D3D3; fill-opacity:0.0; 
stroke:#D3D3D3; stroke-width:100; stroke-opacity:1; 
stroke-linecap:round; stroke-linejoin:round;">
</g>
<g style="fill:#D3D3D3; fill-opacity:0.0; 
stroke:#D3D3D3; stroke-width:160; stroke-opacity:1; 
stroke-linecap:round; stroke-linejoin:round;">
<text x="70080" y="74920"
textLength="3710" font-size="1050" lengthAdjust="spacingAndGlyphs"
text-anchor="start" opacity="0">Title: </text>
<path d="M70360 74090
L70810 74090
" />
<path d="M70480 74880
L70580 74090
" />
<path d="M70970 74880
L71040 74360
" />
<path d="M71070 74090
L71030 74130
L71060 74170
L71110 74130
L71070 74090
L71060 74170
" />
<path d="M71300 74360
L71600 74360
" />
<path d="M71450 74090
L71360 74770
L71390 74840
L71460 74880
L71540 74880
" />
<path d="M71910 74880
L71840 74840
L71820 74770
L71900 74090
" />
<path d="M72520 74840
L72440 74880
L72290 74880
L72220 74840
L72190 74770
L72230 74470
L72280 74390
L72360 74360
L72510 74360
L72580 74390
L72610 74470
L72600 74540
L72210 74620
" />
<path d="M72900 74810
L72930 74840
L72890 74880
L72860 74840
L72900 74810
L72890 74880
" />
<path d="M72950 74390
L72990 74430
L72940 74470
L72910 74430
L72950 74390
L72940 74470
" />
</g>
<g style="fill:#D3D3D3; fill-opacity:0.0; 
stroke:#D3D3D3; stroke-width:100; stroke-opacity:1; 
stroke-linecap:round; stroke-linejoin:round;">
</g>
<g style="fill:#D3D3D3; fill-opacity:0.0; 
stroke:#D3D3D3; stroke-width:60; stroke-opacity:1; 
stroke-linecap:round; stroke-linejoin:round;">
<text x="70080" y="73400"
textLength="7460" font-size="780" lengthAdjust="spacingAndGlyphs"
text-anchor="start" opacity="0">File: display.sch</text>
<path d="M70440 73060
L70250 73060
" />
<path d="M70250 73370
L70250 72780
L70530 72780
" />
<path d="M70750 73370
L70750 72980
" />
<path d="M70750 72780
L70720 72810
L70750 72840
L70780 72810
L70750 72780
L70750 72840
" />
<path d="M71120 73370
L71060 73340
L71030 73290
L71030 72780
" />
<path d="M71570 73340
L71510 73370
L71400 73370
L71340 73340
L71310 73290
L71310 73060
L71340 73010
L71400 72980
L71510 72980
L71570 73010
L71590 73060
L71590 73120
L71310 73180
" />
<path d="M71850 73320
L71880 73340
L71850 73370
L71820 73340
L71850 73320
L71850 73370
" />
<path d="M71850 73010
L71880 73030
L71850 73060
L71820 73030
L71850 73010
L71850 73060
" />
<path d="M72830 73370
L72830 72780
" />
<path d="M72830 73340
L72770 73370
L72660 73370
L72610 73340
L72580 73320
L72550 73260
L72550 73090
L72580 73030
L72610 73010
L72660 72980
L72770 72980
L72830 73010
" />
<path d="M73110 73370
L73110 72980
" />
<path d="M73110 72780
L73080 72810
L73110 72840
L73140 72810
L73110 72780
L73110 72840
" />
<path d="M73360 73340
L73420 73370
L73530 73370
L73590 73340
L73620 73290
L73620 73260
L73590 73200
L73530 73180
L73450 73180
L73390 73150
L73360 73090
L73360 73060
L73390 73010
L73450 72980
L73530 72980
L73590 73010
" />
<path d="M73870 72980
L73870 73570
" />
<path d="M73870 73010
L73930 72980
L74040 72980
L74090 73010
L74120 73030
L74150 73090
L74150 73260
L74120 73320
L74090 73340
L74040 73370
L73930 73370
L73870 73340
" />
<path d="M74490 73370
L74430 73340
L74400 73290
L74400 72780
" />
<path d="M74970 73370
L74970 73060
L74940 73010
L74880 72980
L74770 72980
L74710 73010
" />
<path d="M74970 73340
L74910 73370
L74770 73370
L74710 73340
L74680 73290
L74680 73230
L74710 73180
L74770 73150
L74910 73150
L74970 73120
" />
<path d="M75190 72980
L75330 73370
" />
<path d="M75470 72980
L75330 73370
L75270 73510
L75250 73540
L75190 73570
" />
<path d="M75700 73320
L75720 73340
L75700 73370
L75670 73340
L75700 73320
L75700 73370
" />
<path d="M75950 73340
L76010 73370
L76120 73370
L76170 73340
L76200 73290
L76200 73260
L76170 73200
L76120 73180
L76030 73180
L75980 73150
L75950 73090
L75950 73060
L75980 73010
L76030 72980
L76120 72980
L76170 73010
" />
<path d="M76710 73340
L76650 73370
L76540 73370
L76480 73340
L76450 73320
L76430 73260
L76430 73090
L76450 73030
L76480 73010
L76540 72980
L76650 72980
L76710 73010
" />
<path d="M76960 73370
L76960 72780
" />
<path d="M77210 73370
L77210 73060
L77190 73010
L77130 72980
L77040 72980
L76990 73010
L76960 73030
" />
</g>
<g style="fill:#D3D3D3; fill-opacity:0.0; 
stroke:#D3D3D3; stroke-width:100; stroke-opacity:1; 
stroke-linecap:round; stroke-linejoin:round;">
</g>
<g style="fill:#D3D3D3; fill-opacity:0.0; 
stroke:#D3D3D3; stroke-width:60; stroke-opacity:1; 
stroke-linecap:round; stroke-linejoin:round;">
<path d="M69690 71460
L112210 71460
" />
</g>
<g style="fill:#D3D3D3; fill-opacity:0.0; 
stroke:#D3D3D3; stroke-width:100; stroke-opacity:1; 
stroke-linecap:round; stroke-linejoin:round;">
</g>
<g style="fill:#D3D3D3; fill-opacity:0.0; 
stroke:#D3D3D3; stroke-width:60; stroke-opacity:1; 
stroke-linecap:round; stroke-linejoin:round;">
<text x="70080" y="72340"
textLength="7650" font-size="780" lengthAdjust="spacingAndGlyphs"
text-anchor="start" opacity="0">Sheet: /Display/</text>
<path d="M70220 72280
L70300 72310
L70440 72310
L70500 72280
L70530 72260
L70550 72200
L70550 72140
L70530 72090
L70500 72060
L70440 72030
L70330 72000
L70270 71970
L70250 71950
L70220 71890
L70220 71830
L70250 71780
L70270 71750
L70330 71720
L70470 71720
L70550 71750
" />
<path d="M70810 72310
L70810 71720
" />
<path d="M71060 72310
L71060 72000
L71030 71950
L70980 71920
L70890 71920
L70840 71950
L70810 71970
" />
<path d="M71570 72280
L71510 72310
L71400 72310
L71340 72280
L71310 72230
L71310 72000
L71340 71950
L71400 71920
L71510 71920
L71570 71950
L71590 72000
L71590 72060
L71310 72120
" />
<path d="M72070 72280
L72020 72310
L71900 72310
L71850 72280
L71820 72230
L71820 72000
L71850 71950
L71900 71920
L72020 71920
L72070 71950
L72100 72000
L72100 72060
L71820 72120
" />
<path d="M72270 71920
L72490 71920
" />
<path d="M72350 71720
L72350 72230
L72380 72280
L72440 72310
L72490 72310
" />
<path d="M72690 72260
L72720 72280
L72690 72310
L72660 72280
L72690 72260
L72690 72310
" />
<path d="M72690 71950
L72720 71970
L72690 72000
L72660 71970
L72690 71950
L72690 72000
" />
<path d="M73840 71690
L73340 72450
" />
<path d="M74040 72310
L74040 71720
L74180 71720
L74260 71750
L74320 71810
L74350 71860
L74380 71970
L74380 72060
L74350 72170
L74320 72230
L74260 72280
L74180 72310
L74040 72310
" />
<path d="M74630 72310
L74630 71920
" />
<path d="M74630 71720
L74600 71750
L74630 71780
L74660 71750
L74630 71720
L74630 71780
" />
<path d="M74880 72280
L74940 72310
L75050 72310
L75110 72280
L75130 72230
L75130 72200
L75110 72140
L75050 72120
L74970 72120
L74910 72090
L74880 72030
L74880 72000
L74910 71950
L74970 71920
L75050 71920
L75110 71950
" />
<path d="M75390 71920
L75390 72510
" />
<path d="M75390 71950
L75440 71920
L75560 71920
L75610 71950
L75640 71970
L75670 72030
L75670 72200
L75640 72260
L75610 72280
L75560 72310
L75440 72310
L75390 72280
" />
<path d="M76010 72310
L75950 72280
L75920 72230
L75920 71720
" />
<path d="M76480 72310
L76480 72000
L76450 71950
L76400 71920
L76290 71920
L76230 71950
" />
<path d="M76480 72280
L76430 72310
L76290 72310
L76230 72280
L76200 72230
L76200 72170
L76230 72120
L76290 72090
L76430 72090
L76480 72060
" />
<path d="M76710 71920
L76850 72310
" />
<path d="M76990 71920
L76850 72310
L76790 72450
L76760 72480
L76710 72510
" />
<path d="M77630 71690
L77130 72450
" />
</g>
<g style="fill:#D3D3D3; fill-opacity:0.0; 
stroke:#D3D3D3; stroke-width:100; stroke-opacity:1; 
stroke-linecap:round; stroke-linejoin:round;">
</g>
<g style="fill:#D3D3D3; fill-opacity:0.0; 
stroke:#D3D3D3; stroke-width:60; stroke-opacity:1; 
stroke-linecap:round; stroke-linejoin:round;">
<path d="M77560 75400
L77560 76580
" />
</g>
<g style="fill:#D3D3D3; fill-opacity:0.0; 
stroke:#D3D3D3; stroke-width:100; stroke-opacity:1; 
stroke-linecap:round; stroke-linejoin:round;">
</g>
<g style="fill:#D3D3D3; fill-opacity:0.0; 
stroke:#D3D3D3; stroke-width:60; stroke-opacity:1; 
stroke-linecap:round; stroke-linejoin:round;">
<path d="M102760 75400
L102760 77960
" />
</g>
<g style="fill:#D3D3D3; fill-opacity:0.0; 
stroke:#D3D3D3; stroke-width:0; stroke-opacity:1; 
stroke-linecap:round; stroke-linejoin:round;">
<g >
</g>
<g style="fill:#C4626B; fill-opacity:0.0; 
stroke:#C4626B; stroke-width:0; stroke-opacity:1; 
stroke-linecap:round; stroke-linejoin:round;">
</g>
<g style="fill:#C4626B; fill-opacity:0.0; 
stroke:#C4626B; stroke-width:60; stroke-opacity:1; 
stroke-linecap:round; stroke-linejoin:round;">
<path style="fill:#C4626B; fill-opacity:0.0; 
stroke:#C4626B; stroke-width:60; stroke-opacity:1; 
stroke-linecap:round; stroke-linejoin:round;fill:none"
d="M 36000,31500
36000,32000
36500,32000
36000,32500
35500,32000
36000,32000
" /> 
</g>
<g style="fill:#669696; fill-opacity:0.0; 
stroke:#669696; stroke-width:60; stroke-opacity:1; 
stroke-linecap:round; stroke-linejoin:round;">
<text x="36050" y="33500"
textLength="4370" font-size="660" lengthAdjust="spacingAndGlyphs"
text-anchor="middle" opacity="0">GND-power</text>
<path d="M34270 33000
L34220 32970
L34150 32970
L34080 33000
L34030 33040
L34010 33090
L33990 33190
L33990 33260
L34010 33350
L34030 33400
L34080 33450
L34150 33470
L34200 33470
L34270 33450
L34300 33420
L34300 33260
L34200 33260
" />
<path d="M34510 33470
L34510 32970
L34800 33470
L34800 32970
" />
<path d="M35030 33470
L35030 32970
L35150 32970
L35220 33000
L35270 33040
L35300 33090
L35320 33190
L35320 33260
L35300 33350
L35270 33400
L35220 33450
L35150 33470
L35030 33470
" />
<path d="M35530 33280
L35910 33280
" />
<path d="M36150 33140
L36150 33640
" />
<path d="M36150 33160
L36200 33140
L36300 33140
L36340 33160
L36370 33190
L36390 33230
L36390 33380
L36370 33420
L36340 33450
L36300 33470
L36200 33470
L36150 33450
" />
<path d="M36680 33470
L36630 33450
L36600 33420
L36580 33380
L36580 33230
L36600 33190
L36630 33160
L36680 33140
L36750 33140
L36800 33160
L36820 33190
L36840 33230
L36840 33380
L36820 33420
L36800 33450
L36750 33470
L36680 33470
" />
<path d="M37010 33140
L37100 33470
L37200 33230
L37300 33470
L37390 33140
" />
<path d="M37770 33450
L37720 33470
L37630 33470
L37580 33450
L37560 33400
L37560 33210
L37580 33160
L37630 33140
L37720 33140
L37770 33160
L37800 33210
L37800 33260
L37560 33300
" />
<path d="M38010 33470
L38010 33140
" />
<path d="M38010 33230
L38030 33190
L38060 33160
L38100 33140
L38150 33140
" />
</g>
</g>
<g style="fill:#669696; fill-opacity:0.0; 
stroke:#669696; stroke-width:0; stroke-opacity:1; 
stroke-linecap:round; stroke-linejoin:round;">
<g >
</g>
<g style="fill:#C4626B; fill-opacity:0.0; 
stroke:#C4626B; stroke-width:0; stroke-opacity:1; 
stroke-linecap:round; stroke-linejoin:round;">
</g>
<g style="fill:#C4626B; fill-opacity:0.0; 
stroke:#C4626B; stroke-width:100; stroke-opacity:1; 
stroke-linecap:round; stroke-linejoin:round;">
<rect x="43700" y="16290" width="600" height="1420" rx="0" />
</g>
<g style="fill:#C4626B; fill-opacity:1.0; 
stroke:#C4626B; stroke-width:60; stroke-opacity:1; 
stroke-linecap:round; stroke-linejoin:round;">
<path style="fill:#C4626B; fill-opacity:1.0; 
stroke:#C4626B; stroke-width:60; stroke-opacity:1; 
stroke-linecap:round; stroke-linejoin:round;fill-rule:evenodd;"
d="M 43650,17000
43750,17000
43350,17150
43350,16850
43750,17000
Z" /> 
</g>
<g style="fill:#C4626B; fill-opacity:0.0; 
stroke:#C4626B; stroke-width:60; stroke-opacity:1; 
stroke-linecap:round; stroke-linejoin:round;">
<path d="M44000 17750
L44000 18000
" />
<g transform="rotate(-90 43910 17870)">
<text x="43910" y="17870"
textLength="300" font-size="330" lengthAdjust="spacingAndGlyphs"
text-anchor="middle" opacity="0">1</text>
</g>
</g>
<g style="fill:#C4626B; fill-opacity:0.0; 
stroke:#C4626B; stroke-width:40; stroke-opacity:1; 
stroke-linecap:round; stroke-linejoin:round;">
<path d="M43890 17790
L43890 17940
" />
<path d="M43890 17870
L43640 17870
L43680 17890
L43700 17910
L43710 17940
" />
</g>
<g style="fill:#C4626B; fill-opacity:0.0; 
stroke:#C4626B; stroke-width:60; stroke-opacity:1; 
stroke-linecap:round; stroke-linejoin:round;">
<path d="M43390 17000
L43000 17000
" />
<text x="43190" y="16910"
textLength="280" font-size="330" lengthAdjust="spacingAndGlyphs"
text-anchor="middle" opacity="0">2</text>
</g>
<g style="fill:#C4626B; fill-opacity:0.0; 
stroke:#C4626B; stroke-width:40; stroke-opacity:1; 
stroke-linecap:round; stroke-linejoin:round;">
<path d="M43110 16670
L43130 16660
L43150 16640
L43210 16640
L43230 16660
L43240 16670
L43260 16690
L43260 16710
L43240 16750
L43100 16890
L43260 16890
" />
</g>
<g style="fill:#C4626B; fill-opacity:0.0; 
stroke:#C4626B; stroke-width:60; stroke-opacity:1; 
stroke-linecap:round; stroke-linejoin:round;">
<path d="M44000 16250
L44000 16000
" />
<g transform="rotate(-90 43910 16120)">
<text x="43910" y="16120"
textLength="280" font-size="330" lengthAdjust="spacingAndGlyphs"
text-anchor="middle" opacity="0">3</text>
</g>
</g>
<g style="fill:#C4626B; fill-opacity:0.0; 
stroke:#C4626B; stroke-width:40; stroke-opacity:1; 
stroke-linecap:round; stroke-linejoin:round;">
<path d="M43640 16200
L43640 16040
L43740 16130
L43740 16090
L43750 16070
L43760 16060
L43790 16040
L43850 16040
L43870 16060
L43880 16070
L43890 16090
L43890 16160
L43880 16190
L43870 16200
" />
</g>
<g style="fill:#C4626B; fill-opacity:0.0; 
stroke:#C4626B; stroke-width:60; stroke-opacity:1; 
stroke-linecap:round; stroke-linejoin:round;">
</g>
<g style="fill:#A683E1; fill-opacity:0.0; 
stroke:#A683E1; stroke-width:60; stroke-opacity:1; 
stroke-linecap:round; stroke-linejoin:round;">
<text x="45330" y="16760"
textLength="1440" font-size="660" lengthAdjust="spacingAndGlyphs"
text-anchor="middle" opacity="0">RV2</text>
<path d="M45030 16730
L44860 16490
" />
<path d="M44740 16730
L44740 16230
L44930 16230
L44980 16260
L45000 16280
L45030 16330
L45030 16400
L45000 16450
L44980 16470
L44930 16490
L44740 16490
" />
<path d="M45170 16230
L45340 16730
L45500 16230
" />
<path d="M45650 16280
L45670 16260
L45720 16230
L45840 16230
L45880 16260
L45910 16280
L45930 16330
L45930 16370
L45910 16450
L45620 16730
L45930 16730
" />
</g>
<g style="fill:#669696; fill-opacity:0.0; 
stroke:#669696; stroke-width:60; stroke-opacity:1; 
stroke-linecap:round; stroke-linejoin:round;">
<text x="45350" y="17670"
textLength="1510" font-size="660" lengthAdjust="spacingAndGlyphs"
text-anchor="middle" opacity="0">10K</text>
<path d="M45000 17640
L44710 17640
" />
<path d="M44860 17640
L44860 17140
L44810 17210
L44760 17260
L44710 17280
" />
<path d="M45310 17140
L45360 17140
L45400 17170
L45430 17190
L45450 17240
L45480 17330
L45480 17450
L45450 17550
L45430 17590
L45400 17620
L45360 17640
L45310 17640
L45260 17620
L45240 17590
L45210 17550
L45190 17450
L45190 17330
L45210 17240
L45240 17190
L45260 17170
L45310 17140
" />
<path d="M45690 17640
L45690 17140
" />
<path d="M45980 17640
L45760 17360
" />
<path d="M45980 17140
L45690 17430
" />
</g>
</g>
<g style="fill:#669696; fill-opacity:0.0; 
stroke:#669696; stroke-width:0; stroke-opacity:1; 
stroke-linecap:round; stroke-linejoin:round;">
<g >
</g>
<g style="fill:#C4626B; fill-opacity:0.0; 
stroke:#C4626B; stroke-width:0; stroke-opacity:1; 
stroke-linecap:round; stroke-linejoin:round;">
</g>
<g style="fill:#C4626B; fill-opacity:0.0; 
stroke:#C4626B; stroke-width:60; stroke-opacity:1; 
stroke-linecap:round; stroke-linejoin:round;">
<path style="fill:#C4626B; fill-opacity:0.0; 
stroke:#C4626B; stroke-width:60; stroke-opacity:1; 
stroke-linecap:round; stroke-linejoin:round;fill:none"
d="M 35700,11500
36000,11000
" /> 
<path style="fill:#C4626B; fill-opacity:0.0; 
stroke:#C4626B; stroke-width:60; stroke-opacity:1; 
stroke-linecap:round; stroke-linejoin:round;fill:none"
d="M 36000,12000
36000,11000
" /> 
<path style="fill:#C4626B; fill-opacity:0.0; 
stroke:#C4626B; stroke-width:60; stroke-opacity:1; 
stroke-linecap:round; stroke-linejoin:round;fill:none"
d="M 36000,11000
36300,11500
" /> 
</g>
<g style="fill:#669696; fill-opacity:0.0; 
stroke:#669696; stroke-width:60; stroke-opacity:1; 
stroke-linecap:round; stroke-linejoin:round;">
<text x="36150" y="10540"
textLength="4370" font-size="660" lengthAdjust="spacingAndGlyphs"
text-anchor="middle" opacity="0">+5V-power</text>
<path d="M34110 10320
L34490 10320
" />
<path d="M34300 10510
L34300 10130
" />
<path d="M34970 10010
L34730 10010
L34700 10250
L34730 10230
L34780 10200
L34900 10200
L34940 10230
L34970 10250
L34990 10300
L34990 10420
L34970 10460
L34940 10490
L34900 10510
L34780 10510
L34730 10490
L34700 10460
" />
<path d="M35130 10010
L35300 10510
L35470 10010
" />
<path d="M35630 10320
L36010 10320
" />
<path d="M36250 10180
L36250 10680
" />
<path d="M36250 10200
L36300 10180
L36400 10180
L36440 10200
L36470 10230
L36490 10270
L36490 10420
L36470 10460
L36440 10490
L36400 10510
L36300 10510
L36250 10490
" />
<path d="M36780 10510
L36730 10490
L36700 10460
L36680 10420
L36680 10270
L36700 10230
L36730 10200
L36780 10180
L36850 10180
L36900 10200
L36920 10230
L36940 10270
L36940 10420
L36920 10460
L36900 10490
L36850 10510
L36780 10510
" />
<path d="M37110 10180
L37200 10510
L37300 10270
L37400 10510
L37490 10180
" />
<path d="M37870 10490
L37820 10510
L37730 10510
L37680 10490
L37660 10440
L37660 10250
L37680 10200
L37730 10180
L37820 10180
L37870 10200
L37900 10250
L37900 10300
L37660 10340
" />
<path d="M38110 10510
L38110 10180
" />
<path d="M38110 10270
L38130 10230
L38160 10200
L38200 10180
L38250 10180
" />
</g>
</g>
<g style="fill:#669696; fill-opacity:0.0; 
stroke:#669696; stroke-width:0; stroke-opacity:1; 
stroke-linecap:round; stroke-linejoin:round;">
<g >
</g>
<g style="fill:#C4626B; fill-opacity:0.0; 
stroke:#C4626B; stroke-width:0; stroke-opacity:1; 
stroke-linecap:round; stroke-linejoin:round;">
</g>
<g style="fill:#513C56; fill-opacity:0.0; 
stroke:#513C56; stroke-width:0; stroke-opacity:1; 
stroke-linecap:round; stroke-linejoin:round;">
</g>
<g style="fill:#513C56; fill-opacity:0.6; 
stroke:#513C56; stroke-width:0; stroke-opacity:1; 
stroke-linecap:round; stroke-linejoin:round;">
<rect x="33000" y="16000" width="6000" height="14000" rx="0" />
</g>
<g style="fill:#C4626B; fill-opacity:0.6; 
stroke:#C4626B; stroke-width:0; stroke-opacity:1; 
stroke-linecap:round; stroke-linejoin:round;">
</g>
<g style="fill:#C4626B; fill-opacity:0.0; 
stroke:#C4626B; stroke-width:100; stroke-opacity:1; 
stroke-linecap:round; stroke-linejoin:round;">
<rect x="33000" y="16000" width="6000" height="14000" rx="0" />
<rect x="33000" y="16000" width="6000" height="14000" rx="0" />
</g>
<g style="fill:#C4626B; fill-opacity:0.0; 
stroke:#C4626B; stroke-width:60; stroke-opacity:1; 
stroke-linecap:round; stroke-linejoin:round;">
<path d="M36000 30000
L36000 31000
" />
</g>
<g style="fill:#669696; fill-opacity:0.0; 
stroke:#669696; stroke-width:60; stroke-opacity:1; 
stroke-linecap:round; stroke-linejoin:round;">
<g transform="rotate(-90 36000 29800)">
<text x="36000" y="30050"
textLength="1440" font-size="660" lengthAdjust="spacingAndGlyphs"
text-anchor="start" opacity="0">VSS</text>
</g>
<path d="M35720 29720
L36220 29550
L35720 29380
" />
<path d="M36200 29240
L36220 29170
L36220 29050
L36200 29000
L36170 28980
L36130 28960
L36080 28960
L36030 28980
L36010 29000
L35980 29050
L35960 29150
L35940 29190
L35910 29220
L35860 29240
L35820 29240
L35770 29220
L35750 29190
L35720 29150
L35720 29030
L35750 28960
" />
<path d="M36200 28770
L36220 28690
L36220 28570
L36200 28530
L36170 28500
L36130 28480
L36080 28480
L36030 28500
L36010 28530
L35980 28570
L35960 28670
L35940 28720
L35910 28740
L35860 28770
L35820 28770
L35770 28740
L35750 28720
L35720 28670
L35720 28550
L35750 28480
" />
</g>
<g style="fill:#C4626B; fill-opacity:0.0; 
stroke:#C4626B; stroke-width:60; stroke-opacity:1; 
stroke-linecap:round; stroke-linejoin:round;">
<g transform="rotate(-90 35900 30500)">
<text x="35900" y="30500"
textLength="540" font-size="660" lengthAdjust="spacingAndGlyphs"
text-anchor="middle" opacity="0">1</text>
</g>
<path d="M35870 30350
L35870 30640
" />
<path d="M35870 30500
L35370 30500
L35440 30540
L35490 30590
L35510 30640
" />
<path d="M33000 25000
L32000 25000
" />
</g>
<g style="fill:#669696; fill-opacity:0.0; 
stroke:#669696; stroke-width:60; stroke-opacity:1; 
stroke-linecap:round; stroke-linejoin:round;">
<text x="33200" y="25250"
textLength="1040" font-size="660" lengthAdjust="spacingAndGlyphs"
text-anchor="start" opacity="0">D3</text>
<path d="M33340 25220
L33340 24720
L33460 24720
L33530 24750
L33580 24790
L33610 24840
L33630 24940
L33630 25010
L33610 25100
L33580 25150
L33530 25200
L33460 25220
L33340 25220
" />
<path d="M33800 24720
L34110 24720
L33940 24910
L34010 24910
L34060 24940
L34080 24960
L34110 25010
L34110 25130
L34080 25170
L34060 25200
L34010 25220
L33870 25220
L33820 25200
L33800 25170
" />
</g>
<g style="fill:#C4626B; fill-opacity:0.0; 
stroke:#C4626B; stroke-width:60; stroke-opacity:1; 
stroke-linecap:round; stroke-linejoin:round;">
<text x="32500" y="24900"
textLength="1010" font-size="660" lengthAdjust="spacingAndGlyphs"
text-anchor="middle" opacity="0">10</text>
<path d="M32400 24870
L32110 24870
" />
<path d="M32260 24870
L32260 24370
L32210 24440
L32160 24490
L32110 24510
" />
<path d="M32710 24370
L32760 24370
L32800 24400
L32830 24420
L32850 24470
L32880 24560
L32880 24680
L32850 24780
L32830 24820
L32800 24850
L32760 24870
L32710 24870
L32660 24850
L32640 24820
L32610 24780
L32590 24680
L32590 24560
L32610 24470
L32640 24420
L32660 24400
L32710 24370
" />
<path d="M33000 26000
L32000 26000
" />
</g>
<g style="fill:#669696; fill-opacity:0.0; 
stroke:#669696; stroke-width:60; stroke-opacity:1; 
stroke-linecap:round; stroke-linejoin:round;">
<text x="33200" y="26250"
textLength="1040" font-size="660" lengthAdjust="spacingAndGlyphs"
text-anchor="start" opacity="0">D4</text>
<path d="M33340 26220
L33340 25720
L33460 25720
L33530 25750
L33580 25790
L33610 25840
L33630 25940
L33630 26010
L33610 26100
L33580 26150
L33530 26200
L33460 26220
L33340 26220
" />
<path d="M34060 25890
L34060 26220
" />
<path d="M33940 25700
L33820 26050
L34130 26050
" />
</g>
<g style="fill:#C4626B; fill-opacity:0.0; 
stroke:#C4626B; stroke-width:60; stroke-opacity:1; 
stroke-linecap:round; stroke-linejoin:round;">
<text x="32500" y="25900"
textLength="1010" font-size="660" lengthAdjust="spacingAndGlyphs"
text-anchor="middle" opacity="0">11</text>
<path d="M32400 25870
L32110 25870
" />
<path d="M32260 25870
L32260 25370
L32210 25440
L32160 25490
L32110 25510
" />
<path d="M32880 25870
L32590 25870
" />
<path d="M32730 25870
L32730 25370
L32690 25440
L32640 25490
L32590 25510
" />
<path d="M33000 27000
L32000 27000
" />
</g>
<g style="fill:#669696; fill-opacity:0.0; 
stroke:#669696; stroke-width:60; stroke-opacity:1; 
stroke-linecap:round; stroke-linejoin:round;">
<text x="33200" y="27250"
textLength="1040" font-size="660" lengthAdjust="spacingAndGlyphs"
text-anchor="start" opacity="0">D5</text>
<path d="M33340 27220
L33340 26720
L33460 26720
L33530 26750
L33580 26790
L33610 26840
L33630 26940
L33630 27010
L33610 27100
L33580 27150
L33530 27200
L33460 27220
L33340 27220
" />
<path d="M34080 26720
L33840 26720
L33820 26960
L33840 26940
L33890 26910
L34010 26910
L34060 26940
L34080 26960
L34110 27010
L34110 27130
L34080 27170
L34060 27200
L34010 27220
L33890 27220
L33840 27200
L33820 27170
" />
</g>
<g style="fill:#C4626B; fill-opacity:0.0; 
stroke:#C4626B; stroke-width:60; stroke-opacity:1; 
stroke-linecap:round; stroke-linejoin:round;">
<text x="32500" y="26900"
textLength="1010" font-size="660" lengthAdjust="spacingAndGlyphs"
text-anchor="middle" opacity="0">12</text>
<path d="M32400 26870
L32110 26870
" />
<path d="M32260 26870
L32260 26370
L32210 26440
L32160 26490
L32110 26510
" />
<path d="M32590 26420
L32610 26400
L32660 26370
L32780 26370
L32830 26400
L32850 26420
L32880 26470
L32880 26510
L32850 26590
L32570 26870
L32880 26870
" />
<path d="M33000 28000
L32000 28000
" />
</g>
<g style="fill:#669696; fill-opacity:0.0; 
stroke:#669696; stroke-width:60; stroke-opacity:1; 
stroke-linecap:round; stroke-linejoin:round;">
<text x="33200" y="28250"
textLength="1040" font-size="660" lengthAdjust="spacingAndGlyphs"
text-anchor="start" opacity="0">D6</text>
<path d="M33340 28220
L33340 27720
L33460 27720
L33530 27750
L33580 27790
L33610 27840
L33630 27940
L33630 28010
L33610 28100
L33580 28150
L33530 28200
L33460 28220
L33340 28220
" />
<path d="M34060 27720
L33960 27720
L33920 27750
L33890 27770
L33840 27840
L33820 27940
L33820 28130
L33840 28170
L33870 28200
L33920 28220
L34010 28220
L34060 28200
L34080 28170
L34110 28130
L34110 28010
L34080 27960
L34060 27940
L34010 27910
L33920 27910
L33870 27940
L33840 27960
L33820 28010
" />
</g>
<g style="fill:#C4626B; fill-opacity:0.0; 
stroke:#C4626B; stroke-width:60; stroke-opacity:1; 
stroke-linecap:round; stroke-linejoin:round;">
<text x="32500" y="27900"
textLength="1010" font-size="660" lengthAdjust="spacingAndGlyphs"
text-anchor="middle" opacity="0">13</text>
<path d="M32400 27870
L32110 27870
" />
<path d="M32260 27870
L32260 27370
L32210 27440
L32160 27490
L32110 27510
" />
<path d="M32570 27370
L32880 27370
L32710 27560
L32780 27560
L32830 27590
L32850 27610
L32880 27660
L32880 27780
L32850 27820
L32830 27850
L32780 27870
L32640 27870
L32590 27850
L32570 27820
" />
<path d="M33000 29000
L32000 29000
" />
</g>
<g style="fill:#669696; fill-opacity:0.0; 
stroke:#669696; stroke-width:60; stroke-opacity:1; 
stroke-linecap:round; stroke-linejoin:round;">
<text x="33200" y="29250"
textLength="1040" font-size="660" lengthAdjust="spacingAndGlyphs"
text-anchor="start" opacity="0">D7</text>
<path d="M33340 29220
L33340 28720
L33460 28720
L33530 28750
L33580 28790
L33610 28840
L33630 28940
L33630 29010
L33610 29100
L33580 29150
L33530 29200
L33460 29220
L33340 29220
" />
<path d="M33800 28720
L34130 28720
L33920 29220
" />
</g>
<g style="fill:#C4626B; fill-opacity:0.0; 
stroke:#C4626B; stroke-width:60; stroke-opacity:1; 
stroke-linecap:round; stroke-linejoin:round;">
<text x="32500" y="28900"
textLength="1010" font-size="660" lengthAdjust="spacingAndGlyphs"
text-anchor="middle" opacity="0">14</text>
<path d="M32400 28870
L32110 28870
" />
<path d="M32260 28870
L32260 28370
L32210 28440
L32160 28490
L32110 28510
" />
<path d="M32830 28540
L32830 28870
" />
<path d="M32710 28350
L32590 28700
L32900 28700
" />
<path d="M39000 20000
L40000 20000
" />
</g>
<g style="fill:#669696; fill-opacity:0.0; 
stroke:#669696; stroke-width:60; stroke-opacity:1; 
stroke-linecap:round; stroke-linejoin:round;">
<text x="38800" y="20250"
textLength="2700" font-size="660" lengthAdjust="spacingAndGlyphs"
text-anchor="end" opacity="0">LED(+)</text>
<path d="M36480 20220
L36240 20220
L36240 19720
" />
<path d="M36650 19960
L36810 19960
" />
<path d="M36880 20220
L36650 20220
L36650 19720
L36880 19720
" />
<path d="M37100 20220
L37100 19720
L37220 19720
L37290 19750
L37340 19790
L37360 19840
L37380 19940
L37380 20010
L37360 20100
L37340 20150
L37290 20200
L37220 20220
L37100 20220
" />
<path d="M37740 20410
L37720 20390
L37670 20320
L37650 20270
L37620 20200
L37600 20080
L37600 19980
L37620 19860
L37650 19790
L37670 19750
L37720 19670
L37740 19650
" />
<path d="M37930 20030
L38310 20030
" />
<path d="M38120 20220
L38120 19840
" />
<path d="M38500 20410
L38530 20390
L38570 20320
L38600 20270
L38620 20200
L38650 20080
L38650 19980
L38620 19860
L38600 19790
L38570 19750
L38530 19670
L38500 19650
" />
</g>
<g style="fill:#C4626B; fill-opacity:0.0; 
stroke:#C4626B; stroke-width:60; stroke-opacity:1; 
stroke-linecap:round; stroke-linejoin:round;">
<text x="39500" y="19900"
textLength="1010" font-size="660" lengthAdjust="spacingAndGlyphs"
text-anchor="middle" opacity="0">15</text>
<path d="M39400 19870
L39110 19870
" />
<path d="M39260 19870
L39260 19370
L39210 19440
L39160 19490
L39110 19510
" />
<path d="M39850 19370
L39610 19370
L39590 19610
L39610 19590
L39660 19560
L39780 19560
L39830 19590
L39850 19610
L39880 19660
L39880 19780
L39850 19820
L39830 19850
L39780 19870
L39660 19870
L39610 19850
L39590 19820
" />
<path d="M39000 21000
L40000 21000
" />
</g>
<g style="fill:#669696; fill-opacity:0.0; 
stroke:#669696; stroke-width:60; stroke-opacity:1; 
stroke-linecap:round; stroke-linejoin:round;">
<text x="38800" y="21250"
textLength="2700" font-size="660" lengthAdjust="spacingAndGlyphs"
text-anchor="end" opacity="0">LED(-)</text>
<path d="M36480 21220
L36240 21220
L36240 20720
" />
<path d="M36650 20960
L36810 20960
" />
<path d="M36880 21220
L36650 21220
L36650 20720
L36880 20720
" />
<path d="M37100 21220
L37100 20720
L37220 20720
L37290 20750
L37340 20790
L37360 20840
L37380 20940
L37380 21010
L37360 21100
L37340 21150
L37290 21200
L37220 21220
L37100 21220
" />
<path d="M37740 21410
L37720 21390
L37670 21320
L37650 21270
L37620 21200
L37600 21080
L37600 20980
L37620 20860
L37650 20790
L37670 20750
L37720 20670
L37740 20650
" />
<path d="M37930 21030
L38310 21030
" />
<path d="M38500 21410
L38530 21390
L38570 21320
L38600 21270
L38620 21200
L38650 21080
L38650 20980
L38620 20860
L38600 20790
L38570 20750
L38530 20670
L38500 20650
" />
</g>
<g style="fill:#C4626B; fill-opacity:0.0; 
stroke:#C4626B; stroke-width:60; stroke-opacity:1; 
stroke-linecap:round; stroke-linejoin:round;">
<text x="39500" y="20900"
textLength="1010" font-size="660" lengthAdjust="spacingAndGlyphs"
text-anchor="middle" opacity="0">16</text>
<path d="M39400 20870
L39110 20870
" />
<path d="M39260 20870
L39260 20370
L39210 20440
L39160 20490
L39110 20510
" />
<path d="M39830 20370
L39730 20370
L39690 20400
L39660 20420
L39610 20490
L39590 20590
L39590 20780
L39610 20820
L39640 20850
L39690 20870
L39780 20870
L39830 20850
L39850 20820
L39880 20780
L39880 20660
L39850 20610
L39830 20590
L39780 20560
L39690 20560
L39640 20590
L39610 20610
L39590 20660
" />
<path d="M36000 16000
L36000 15000
" />
</g>
<g style="fill:#669696; fill-opacity:0.0; 
stroke:#669696; stroke-width:60; stroke-opacity:1; 
stroke-linecap:round; stroke-linejoin:round;">
<g transform="rotate(-90 36000 16200)">
<text x="36000" y="16450"
textLength="1490" font-size="660" lengthAdjust="spacingAndGlyphs"
text-anchor="end" opacity="0">VDD</text>
</g>
<path d="M35720 17610
L36220 17440
L35720 17270
" />
<path d="M36220 17110
L35720 17110
L35720 16990
L35750 16920
L35790 16870
L35840 16840
L35940 16820
L36010 16820
L36100 16840
L36150 16870
L36200 16920
L36220 16990
L36220 17110
" />
<path d="M36220 16610
L35720 16610
L35720 16490
L35750 16420
L35790 16370
L35840 16340
L35940 16320
L36010 16320
L36100 16340
L36150 16370
L36200 16420
L36220 16490
L36220 16610
" />
</g>
<g style="fill:#C4626B; fill-opacity:0.0; 
stroke:#C4626B; stroke-width:60; stroke-opacity:1; 
stroke-linecap:round; stroke-linejoin:round;">
<g transform="rotate(-90 35900 15500)">
<text x="35900" y="15500"
textLength="540" font-size="660" lengthAdjust="spacingAndGlyphs"
text-anchor="middle" opacity="0">2</text>
</g>
<path d="M35420 15640
L35400 15610
L35370 15570
L35370 15450
L35400 15400
L35420 15380
L35470 15350
L35510 15350
L35590 15380
L35870 15660
L35870 15350
" />
<path d="M39000 17000
L40000 17000
" />
</g>
<g style="fill:#669696; fill-opacity:0.0; 
stroke:#669696; stroke-width:60; stroke-opacity:1; 
stroke-linecap:round; stroke-linejoin:round;">
<text x="38800" y="17250"
textLength="1010" font-size="660" lengthAdjust="spacingAndGlyphs"
text-anchor="end" opacity="0">VO</text>
<path d="M37860 16720
L38030 17220
L38190 16720
" />
<path d="M38460 16720
L38550 16720
L38600 16750
L38650 16790
L38670 16890
L38670 17050
L38650 17150
L38600 17200
L38550 17220
L38460 17220
L38410 17200
L38360 17150
L38340 17050
L38340 16890
L38360 16790
L38410 16750
L38460 16720
" />
</g>
<g style="fill:#C4626B; fill-opacity:0.0; 
stroke:#C4626B; stroke-width:60; stroke-opacity:1; 
stroke-linecap:round; stroke-linejoin:round;">
<text x="39500" y="16900"
textLength="540" font-size="660" lengthAdjust="spacingAndGlyphs"
text-anchor="middle" opacity="0">3</text>
<path d="M39330 16370
L39640 16370
L39470 16560
L39540 16560
L39590 16590
L39610 16610
L39640 16660
L39640 16780
L39610 16820
L39590 16850
L39540 16870
L39400 16870
L39350 16850
L39330 16820
" />
<path d="M33000 19000
L32000 19000
" />
</g>
<g style="fill:#669696; fill-opacity:0.0; 
stroke:#669696; stroke-width:60; stroke-opacity:1; 
stroke-linecap:round; stroke-linejoin:round;">
<text x="33200" y="19250"
textLength="1040" font-size="660" lengthAdjust="spacingAndGlyphs"
text-anchor="start" opacity="0">RS</text>
<path d="M33630 19220
L33460 18980
" />
<path d="M33340 19220
L33340 18720
L33530 18720
L33580 18750
L33610 18770
L33630 18820
L33630 18890
L33610 18940
L33580 18960
L33530 18980
L33340 18980
" />
<path d="M33820 19200
L33890 19220
L34010 19220
L34060 19200
L34080 19170
L34110 19130
L34110 19080
L34080 19030
L34060 19010
L34010 18980
L33920 18960
L33870 18940
L33840 18910
L33820 18860
L33820 18820
L33840 18770
L33870 18750
L33920 18720
L34030 18720
L34110 18750
" />
</g>
<g style="fill:#C4626B; fill-opacity:0.0; 
stroke:#C4626B; stroke-width:60; stroke-opacity:1; 
stroke-linecap:round; stroke-linejoin:round;">
<text x="32500" y="18900"
textLength="540" font-size="660" lengthAdjust="spacingAndGlyphs"
text-anchor="middle" opacity="0">4</text>
<path d="M32590 18540
L32590 18870
" />
<path d="M32470 18350
L32350 18700
L32660 18700
" />
<path d="M33000 18000
L32000 18000
" />
</g>
<g style="fill:#669696; fill-opacity:0.0; 
stroke:#669696; stroke-width:60; stroke-opacity:1; 
stroke-linecap:round; stroke-linejoin:round;">
<text x="33200" y="18250"
textLength="1660" font-size="660" lengthAdjust="spacingAndGlyphs"
text-anchor="start" opacity="0">R/W</text>
<path d="M33630 18220
L33460 17980
" />
<path d="M33340 18220
L33340 17720
L33530 17720
L33580 17750
L33610 17770
L33630 17820
L33630 17890
L33610 17940
L33580 17960
L33530 17980
L33340 17980
" />
<path d="M34200 17700
L33770 18340
" />
<path d="M34320 17720
L34440 18220
L34530 17860
L34630 18220
L34750 17720
" />
</g>
<g style="fill:#C4626B; fill-opacity:0.0; 
stroke:#C4626B; stroke-width:60; stroke-opacity:1; 
stroke-linecap:round; stroke-linejoin:round;">
<text x="32500" y="17900"
textLength="540" font-size="660" lengthAdjust="spacingAndGlyphs"
text-anchor="middle" opacity="0">5</text>
<path d="M32610 17370
L32380 17370
L32350 17610
L32380 17590
L32420 17560
L32540 17560
L32590 17590
L32610 17610
L32640 17660
L32640 17780
L32610 17820
L32590 17850
L32540 17870
L32420 17870
L32380 17850
L32350 17820
" />
<path d="M33000 17000
L32000 17000
" />
</g>
<g style="fill:#669696; fill-opacity:0.0; 
stroke:#669696; stroke-width:60; stroke-opacity:1; 
stroke-linecap:round; stroke-linejoin:round;">
<text x="33200" y="17250"
textLength="510" font-size="660" lengthAdjust="spacingAndGlyphs"
text-anchor="start" opacity="0">E</text>
<path d="M33340 16960
L33510 16960
" />
<path d="M33580 17220
L33340 17220
L33340 16720
L33580 16720
" />
</g>
<g style="fill:#C4626B; fill-opacity:0.0; 
stroke:#C4626B; stroke-width:60; stroke-opacity:1; 
stroke-linecap:round; stroke-linejoin:round;">
<text x="32500" y="16900"
textLength="540" font-size="660" lengthAdjust="spacingAndGlyphs"
text-anchor="middle" opacity="0">6</text>
<path d="M32590 16370
L32500 16370
L32450 16400
L32420 16420
L32380 16490
L32350 16590
L32350 16780
L32380 16820
L32400 16850
L32450 16870
L32540 16870
L32590 16850
L32610 16820
L32640 16780
L32640 16660
L32610 16610
L32590 16590
L32540 16560
L32450 16560
L32400 16590
L32380 16610
L32350 16660
" />
<path d="M33000 22000
L32000 22000
" />
</g>
<g style="fill:#669696; fill-opacity:0.0; 
stroke:#669696; stroke-width:60; stroke-opacity:1; 
stroke-linecap:round; stroke-linejoin:round;">
<text x="33200" y="22250"
textLength="1040" font-size="660" lengthAdjust="spacingAndGlyphs"
text-anchor="start" opacity="0">D0</text>
<path d="M33340 22220
L33340 21720
L33460 21720
L33530 21750
L33580 21790
L33610 21840
L33630 21940
L33630 22010
L33610 22100
L33580 22150
L33530 22200
L33460 22220
L33340 22220
" />
<path d="M33940 21720
L33990 21720
L34030 21750
L34060 21770
L34080 21820
L34110 21910
L34110 22030
L34080 22130
L34060 22170
L34030 22200
L33990 22220
L33940 22220
L33890 22200
L33870 22170
L33840 22130
L33820 22030
L33820 21910
L33840 21820
L33870 21770
L33890 21750
L33940 21720
" />
</g>
<g style="fill:#C4626B; fill-opacity:0.0; 
stroke:#C4626B; stroke-width:60; stroke-opacity:1; 
stroke-linecap:round; stroke-linejoin:round;">
<text x="32500" y="21900"
textLength="540" font-size="660" lengthAdjust="spacingAndGlyphs"
text-anchor="middle" opacity="0">7</text>
<path d="M32330 21370
L32660 21370
L32450 21870
" />
<path d="M33000 23000
L32000 23000
" />
</g>
<g style="fill:#669696; fill-opacity:0.0; 
stroke:#669696; stroke-width:60; stroke-opacity:1; 
stroke-linecap:round; stroke-linejoin:round;">
<text x="33200" y="23250"
textLength="1040" font-size="660" lengthAdjust="spacingAndGlyphs"
text-anchor="start" opacity="0">D1</text>
<path d="M33340 23220
L33340 22720
L33460 22720
L33530 22750
L33580 22790
L33610 22840
L33630 22940
L33630 23010
L33610 23100
L33580 23150
L33530 23200
L33460 23220
L33340 23220
" />
<path d="M34110 23220
L33820 23220
" />
<path d="M33960 23220
L33960 22720
L33920 22790
L33870 22840
L33820 22860
" />
</g>
<g style="fill:#C4626B; fill-opacity:0.0; 
stroke:#C4626B; stroke-width:60; stroke-opacity:1; 
stroke-linecap:round; stroke-linejoin:round;">
<text x="32500" y="22900"
textLength="540" font-size="660" lengthAdjust="spacingAndGlyphs"
text-anchor="middle" opacity="0">8</text>
<path d="M32450 22590
L32400 22560
L32380 22540
L32350 22490
L32350 22470
L32380 22420
L32400 22400
L32450 22370
L32540 22370
L32590 22400
L32610 22420
L32640 22470
L32640 22490
L32610 22540
L32590 22560
L32540 22590
L32450 22590
L32400 22610
L32380 22630
L32350 22680
L32350 22780
L32380 22820
L32400 22850
L32450 22870
L32540 22870
L32590 22850
L32610 22820
L32640 22780
L32640 22680
L32610 22630
L32590 22610
L32540 22590
" />
<path d="M33000 24000
L32000 24000
" />
</g>
<g style="fill:#669696; fill-opacity:0.0; 
stroke:#669696; stroke-width:60; stroke-opacity:1; 
stroke-linecap:round; stroke-linejoin:round;">
<text x="33200" y="24250"
textLength="1040" font-size="660" lengthAdjust="spacingAndGlyphs"
text-anchor="start" opacity="0">D2</text>
<path d="M33340 24220
L33340 23720
L33460 23720
L33530 23750
L33580 23790
L33610 23840
L33630 23940
L33630 24010
L33610 24100
L33580 24150
L33530 24200
L33460 24220
L33340 24220
" />
<path d="M33820 23770
L33840 23750
L33890 23720
L34010 23720
L34060 23750
L34080 23770
L34110 23820
L34110 23860
L34080 23940
L33800 24220
L34110 24220
" />
</g>
<g style="fill:#C4626B; fill-opacity:0.0; 
stroke:#C4626B; stroke-width:60; stroke-opacity:1; 
stroke-linecap:round; stroke-linejoin:round;">
<text x="32500" y="23900"
textLength="540" font-size="660" lengthAdjust="spacingAndGlyphs"
text-anchor="middle" opacity="0">9</text>
<path d="M32400 23870
L32500 23870
L32540 23850
L32570 23820
L32610 23750
L32640 23660
L32640 23470
L32610 23420
L32590 23400
L32540 23370
L32450 23370
L32400 23400
L32380 23420
L32350 23470
L32350 23590
L32380 23630
L32400 23660
L32450 23680
L32540 23680
L32590 23660
L32610 23630
L32640 23590
" />
</g>
<g style="fill:#A683E1; fill-opacity:0.0; 
stroke:#A683E1; stroke-width:60; stroke-opacity:1; 
stroke-linecap:round; stroke-linejoin:round;">
<text x="36000" y="13460"
textLength="1510" font-size="660" lengthAdjust="spacingAndGlyphs"
text-anchor="middle" opacity="0">DS1</text>
<path d="M35390 13430
L35390 12930
L35510 12930
L35580 12960
L35630 13000
L35650 13050
L35670 13150
L35670 13220
L35650 13310
L35630 13360
L35580 13410
L35510 13430
L35390 13430
" />
<path d="M35860 13410
L35940 13430
L36050 13430
L36100 13410
L36130 13380
L36150 13340
L36150 13290
L36130 13240
L36100 13220
L36050 13190
L35960 13170
L35910 13150
L35890 13120
L35860 13070
L35860 13030
L35890 12980
L35910 12960
L35960 12930
L36080 12930
L36150 12960
" />
<path d="M36630 13430
L36340 13430
" />
<path d="M36480 13430
L36480 12930
L36440 13000
L36390 13050
L36340 13070
" />
</g>
<g style="fill:#669696; fill-opacity:0.0; 
stroke:#669696; stroke-width:60; stroke-opacity:1; 
stroke-linecap:round; stroke-linejoin:round;">
<text x="36000" y="14370"
textLength="3460" font-size="660" lengthAdjust="spacingAndGlyphs"
text-anchor="middle" opacity="0">WC1602A</text>
<path d="M34360 13840
L34480 14340
L34580 13980
L34670 14340
L34790 13840
" />
<path d="M35270 14290
L35250 14320
L35170 14340
L35130 14340
L35050 14320
L35010 14270
L34980 14220
L34960 14130
L34960 14060
L34980 13960
L35010 13910
L35050 13870
L35130 13840
L35170 13840
L35250 13870
L35270 13890
" />
<path d="M35750 14340
L35460 14340
" />
<path d="M35600 14340
L35600 13840
L35550 13910
L35510 13960
L35460 13980
" />
<path d="M36170 13840
L36080 13840
L36030 13870
L36010 13890
L35960 13960
L35940 14060
L35940 14250
L35960 14290
L35980 14320
L36030 14340
L36130 14340
L36170 14320
L36200 14290
L36220 14250
L36220 14130
L36200 14080
L36170 14060
L36130 14030
L36030 14030
L35980 14060
L35960 14080
L35940 14130
" />
<path d="M36530 13840
L36580 13840
L36630 13870
L36650 13890
L36670 13940
L36700 14030
L36700 14150
L36670 14250
L36650 14290
L36630 14320
L36580 14340
L36530 14340
L36480 14320
L36460 14290
L36440 14250
L36410 14150
L36410 14030
L36440 13940
L36460 13890
L36480 13870
L36530 13840
" />
<path d="M36890 13890
L36910 13870
L36960 13840
L37080 13840
L37130 13870
L37150 13890
L37170 13940
L37170 13980
L37150 14060
L36860 14340
L37170 14340
" />
<path d="M37360 14200
L37600 14200
" />
<path d="M37320 14340
L37480 13840
L37650 14340
" />
</g>
</g>
<g style="fill:#669696; fill-opacity:0.0; 
stroke:#669696; stroke-width:60; stroke-opacity:1; 
stroke-linecap:round; stroke-linejoin:round;">
</g>
<g style="fill:#8DD272; fill-opacity:0.0; 
stroke:#8DD272; stroke-width:60; stroke-opacity:1; 
stroke-linecap:round; stroke-linejoin:round;">
<path d="M18000 22000
L32000 22000
" />
<path d="M32000 19000
L26000 19000
" />
<path d="M26500 18000
L32000 18000
" />
<path d="M32000 17000
L27000 17000
" />
<path d="M40000 17000
L43000 17000
" />
<path d="M36000 31500
L36000 31000
" />
<path d="M44000 18000
L44000 31500
" />
<path d="M40000 21000
L40000 31500
" />
<path d="M36000 31500
L40000 31500
" />
<path d="M40000 31500
L44000 31500
" />
<path d="M40000 20000
L41500 20000
" />
<path d="M41500 20000
L41500 12000
" />
<path d="M41500 12000
L36000 12000
" />
<path d="M36000 12000
L36000 15000
" />
<path d="M18000 24000
L32000 24000
" />
<path d="M18000 25000
L32000 25000
" />
<path d="M18000 26000
L32000 26000
" />
<path d="M18000 27000
L32000 27000
" />
<path d="M18000 28000
L32000 28000
" />
<path d="M18000 29000
L32000 29000
" />
<path d="M18000 23000
L32000 23000
" />
</g>
<g style="fill:#C3AE72; fill-opacity:0.0; 
stroke:#C3AE72; stroke-width:60; stroke-opacity:1; 
stroke-linecap:round; stroke-linejoin:round;">
<text x="17400" y="28250"
textLength="1890" font-size="660" lengthAdjust="spacingAndGlyphs"
text-anchor="end" opacity="0">Bus6</text>
<path d="M15820 27960
L15890 27980
L15910 28010
L15940 28050
L15940 28130
L15910 28170
L15890 28200
L15840 28220
L15650 28220
L15650 27720
L15820 27720
L15870 27750
L15890 27770
L15910 27820
L15910 27860
L15890 27910
L15870 27940
L15820 27960
L15650 27960
" />
<path d="M16370 27890
L16370 28220
" />
<path d="M16150 27890
L16150 28150
L16170 28200
L16220 28220
L16290 28220
L16340 28200
L16370 28170
" />
<path d="M16580 28200
L16630 28220
L16720 28220
L16770 28200
L16790 28150
L16790 28130
L16770 28080
L16720 28050
L16650 28050
L16600 28030
L16580 27980
L16580 27960
L16600 27910
L16650 27890
L16720 27890
L16770 27910
" />
<path d="M17220 27720
L17130 27720
L17080 27750
L17060 27770
L17010 27840
L16980 27940
L16980 28130
L17010 28170
L17030 28200
L17080 28220
L17170 28220
L17220 28200
L17250 28170
L17270 28130
L17270 28010
L17250 27960
L17220 27940
L17170 27910
L17080 27910
L17030 27940
L17010 27960
L16980 28010
" />
</g>
<g style="fill:#C3AE72; fill-opacity:0.0; 
stroke:#C3AE72; stroke-width:100; stroke-opacity:1; 
stroke-linecap:round; stroke-linejoin:round;">
<path style="fill:#C3AE72; fill-opacity:0.0; 
stroke:#C3AE72; stroke-width:100; stroke-opacity:1; 
stroke-linecap:round; stroke-linejoin:round;fill:none"
d="M 18000,28000
17750,27750
17500,28000
17750,28250
Z" /> 
</g>
<g style="fill:#C3AE72; fill-opacity:0.0; 
stroke:#C3AE72; stroke-width:60; stroke-opacity:1; 
stroke-linecap:round; stroke-linejoin:round;">
<text x="17400" y="22250"
textLength="1890" font-size="660" lengthAdjust="spacingAndGlyphs"
text-anchor="end" opacity="0">Bus0</text>
<path d="M15820 21960
L15890 21980
L15910 22010
L15940 22050
L15940 22130
L15910 22170
L15890 22200
L15840 22220
L15650 22220
L15650 21720
L15820 21720
L15870 21750
L15890 21770
L15910 21820
L15910 21860
L15890 21910
L15870 21940
L15820 21960
L15650 21960
" />
<path d="M16370 21890
L16370 22220
" />
<path d="M16150 21890
L16150 22150
L16170 22200
L16220 22220
L16290 22220
L16340 22200
L16370 22170
" />
<path d="M16580 22200
L16630 22220
L16720 22220
L16770 22200
L16790 22150
L16790 22130
L16770 22080
L16720 22050
L16650 22050
L16600 22030
L16580 21980
L16580 21960
L16600 21910
L16650 21890
L16720 21890
L16770 21910
" />
<path d="M17100 21720
L17150 21720
L17200 21750
L17220 21770
L17250 21820
L17270 21910
L17270 22030
L17250 22130
L17220 22170
L17200 22200
L17150 22220
L17100 22220
L17060 22200
L17030 22170
L17010 22130
L16980 22030
L16980 21910
L17010 21820
L17030 21770
L17060 21750
L17100 21720
" />
</g>
<g style="fill:#C3AE72; fill-opacity:0.0; 
stroke:#C3AE72; stroke-width:100; stroke-opacity:1; 
stroke-linecap:round; stroke-linejoin:round;">
<path style="fill:#C3AE72; fill-opacity:0.0; 
stroke:#C3AE72; stroke-width:100; stroke-opacity:1; 
stroke-linecap:round; stroke-linejoin:round;fill:none"
d="M 18000,22000
17750,21750
17500,22000
17750,22250
Z" /> 
</g>
<g style="fill:#C3AE72; fill-opacity:0.0; 
stroke:#C3AE72; stroke-width:60; stroke-opacity:1; 
stroke-linecap:round; stroke-linejoin:round;">
<text x="17400" y="23250"
textLength="1890" font-size="660" lengthAdjust="spacingAndGlyphs"
text-anchor="end" opacity="0">Bus1</text>
<path d="M15820 22960
L15890 22980
L15910 23010
L15940 23050
L15940 23130
L15910 23170
L15890 23200
L15840 23220
L15650 23220
L15650 22720
L15820 22720
L15870 22750
L15890 22770
L15910 22820
L15910 22860
L15890 22910
L15870 22940
L15820 22960
L15650 22960
" />
<path d="M16370 22890
L16370 23220
" />
<path d="M16150 22890
L16150 23150
L16170 23200
L16220 23220
L16290 23220
L16340 23200
L16370 23170
" />
<path d="M16580 23200
L16630 23220
L16720 23220
L16770 23200
L16790 23150
L16790 23130
L16770 23080
L16720 23050
L16650 23050
L16600 23030
L16580 22980
L16580 22960
L16600 22910
L16650 22890
L16720 22890
L16770 22910
" />
<path d="M17270 23220
L16980 23220
" />
<path d="M17130 23220
L17130 22720
L17080 22790
L17030 22840
L16980 22860
" />
</g>
<g style="fill:#C3AE72; fill-opacity:0.0; 
stroke:#C3AE72; stroke-width:100; stroke-opacity:1; 
stroke-linecap:round; stroke-linejoin:round;">
<path style="fill:#C3AE72; fill-opacity:0.0; 
stroke:#C3AE72; stroke-width:100; stroke-opacity:1; 
stroke-linecap:round; stroke-linejoin:round;fill:none"
d="M 18000,23000
17750,22750
17500,23000
17750,23250
Z" /> 
</g>
<g style="fill:#C3AE72; fill-opacity:0.0; 
stroke:#C3AE72; stroke-width:60; stroke-opacity:1; 
stroke-linecap:round; stroke-linejoin:round;">
<text x="17400" y="24250"
textLength="1890" font-size="660" lengthAdjust="spacingAndGlyphs"
text-anchor="end" opacity="0">Bus2</text>
<path d="M15820 23960
L15890 23980
L15910 24010
L15940 24050
L15940 24130
L15910 24170
L15890 24200
L15840 24220
L15650 24220
L15650 23720
L15820 23720
L15870 23750
L15890 23770
L15910 23820
L15910 23860
L15890 23910
L15870 23940
L15820 23960
L15650 23960
" />
<path d="M16370 23890
L16370 24220
" />
<path d="M16150 23890
L16150 24150
L16170 24200
L16220 24220
L16290 24220
L16340 24200
L16370 24170
" />
<path d="M16580 24200
L16630 24220
L16720 24220
L16770 24200
L16790 24150
L16790 24130
L16770 24080
L16720 24050
L16650 24050
L16600 24030
L16580 23980
L16580 23960
L16600 23910
L16650 23890
L16720 23890
L16770 23910
" />
<path d="M16980 23770
L17010 23750
L17060 23720
L17170 23720
L17220 23750
L17250 23770
L17270 23820
L17270 23860
L17250 23940
L16960 24220
L17270 24220
" />
</g>
<g style="fill:#C3AE72; fill-opacity:0.0; 
stroke:#C3AE72; stroke-width:100; stroke-opacity:1; 
stroke-linecap:round; stroke-linejoin:round;">
<path style="fill:#C3AE72; fill-opacity:0.0; 
stroke:#C3AE72; stroke-width:100; stroke-opacity:1; 
stroke-linecap:round; stroke-linejoin:round;fill:none"
d="M 18000,24000
17750,23750
17500,24000
17750,24250
Z" /> 
</g>
<g style="fill:#C3AE72; fill-opacity:0.0; 
stroke:#C3AE72; stroke-width:60; stroke-opacity:1; 
stroke-linecap:round; stroke-linejoin:round;">
<text x="17400" y="25250"
textLength="1890" font-size="660" lengthAdjust="spacingAndGlyphs"
text-anchor="end" opacity="0">Bus3</text>
<path d="M15820 24960
L15890 24980
L15910 25010
L15940 25050
L15940 25130
L15910 25170
L15890 25200
L15840 25220
L15650 25220
L15650 24720
L15820 24720
L15870 24750
L15890 24770
L15910 24820
L15910 24860
L15890 24910
L15870 24940
L15820 24960
L15650 24960
" />
<path d="M16370 24890
L16370 25220
" />
<path d="M16150 24890
L16150 25150
L16170 25200
L16220 25220
L16290 25220
L16340 25200
L16370 25170
" />
<path d="M16580 25200
L16630 25220
L16720 25220
L16770 25200
L16790 25150
L16790 25130
L16770 25080
L16720 25050
L16650 25050
L16600 25030
L16580 24980
L16580 24960
L16600 24910
L16650 24890
L16720 24890
L16770 24910
" />
<path d="M16960 24720
L17270 24720
L17100 24910
L17170 24910
L17220 24940
L17250 24960
L17270 25010
L17270 25130
L17250 25170
L17220 25200
L17170 25220
L17030 25220
L16980 25200
L16960 25170
" />
</g>
<g style="fill:#C3AE72; fill-opacity:0.0; 
stroke:#C3AE72; stroke-width:100; stroke-opacity:1; 
stroke-linecap:round; stroke-linejoin:round;">
<path style="fill:#C3AE72; fill-opacity:0.0; 
stroke:#C3AE72; stroke-width:100; stroke-opacity:1; 
stroke-linecap:round; stroke-linejoin:round;fill:none"
d="M 18000,25000
17750,24750
17500,25000
17750,25250
Z" /> 
</g>
<g style="fill:#C3AE72; fill-opacity:0.0; 
stroke:#C3AE72; stroke-width:60; stroke-opacity:1; 
stroke-linecap:round; stroke-linejoin:round;">
<text x="17400" y="26250"
textLength="1890" font-size="660" lengthAdjust="spacingAndGlyphs"
text-anchor="end" opacity="0">Bus4</text>
<path d="M15820 25960
L15890 25980
L15910 26010
L15940 26050
L15940 26130
L15910 26170
L15890 26200
L15840 26220
L15650 26220
L15650 25720
L15820 25720
L15870 25750
L15890 25770
L15910 25820
L15910 25860
L15890 25910
L15870 25940
L15820 25960
L15650 25960
" />
<path d="M16370 25890
L16370 26220
" />
<path d="M16150 25890
L16150 26150
L16170 26200
L16220 26220
L16290 26220
L16340 26200
L16370 26170
" />
<path d="M16580 26200
L16630 26220
L16720 26220
L16770 26200
L16790 26150
L16790 26130
L16770 26080
L16720 26050
L16650 26050
L16600 26030
L16580 25980
L16580 25960
L16600 25910
L16650 25890
L16720 25890
L16770 25910
" />
<path d="M17220 25890
L17220 26220
" />
<path d="M17100 25700
L16980 26050
L17290 26050
" />
</g>
<g style="fill:#C3AE72; fill-opacity:0.0; 
stroke:#C3AE72; stroke-width:100; stroke-opacity:1; 
stroke-linecap:round; stroke-linejoin:round;">
<path style="fill:#C3AE72; fill-opacity:0.0; 
stroke:#C3AE72; stroke-width:100; stroke-opacity:1; 
stroke-linecap:round; stroke-linejoin:round;fill:none"
d="M 18000,26000
17750,25750
17500,26000
17750,26250
Z" /> 
</g>
<g style="fill:#C3AE72; fill-opacity:0.0; 
stroke:#C3AE72; stroke-width:60; stroke-opacity:1; 
stroke-linecap:round; stroke-linejoin:round;">
<text x="17400" y="27250"
textLength="1890" font-size="660" lengthAdjust="spacingAndGlyphs"
text-anchor="end" opacity="0">Bus5</text>
<path d="M15820 26960
L15890 26980
L15910 27010
L15940 27050
L15940 27130
L15910 27170
L15890 27200
L15840 27220
L15650 27220
L15650 26720
L15820 26720
L15870 26750
L15890 26770
L15910 26820
L15910 26860
L15890 26910
L15870 26940
L15820 26960
L15650 26960
" />
<path d="M16370 26890
L16370 27220
" />
<path d="M16150 26890
L16150 27150
L16170 27200
L16220 27220
L16290 27220
L16340 27200
L16370 27170
" />
<path d="M16580 27200
L16630 27220
L16720 27220
L16770 27200
L16790 27150
L16790 27130
L16770 27080
L16720 27050
L16650 27050
L16600 27030
L16580 26980
L16580 26960
L16600 26910
L16650 26890
L16720 26890
L16770 26910
" />
<path d="M17250 26720
L17010 26720
L16980 26960
L17010 26940
L17060 26910
L17170 26910
L17220 26940
L17250 26960
L17270 27010
L17270 27130
L17250 27170
L17220 27200
L17170 27220
L17060 27220
L17010 27200
L16980 27170
" />
</g>
<g style="fill:#C3AE72; fill-opacity:0.0; 
stroke:#C3AE72; stroke-width:100; stroke-opacity:1; 
stroke-linecap:round; stroke-linejoin:round;">
<path style="fill:#C3AE72; fill-opacity:0.0; 
stroke:#C3AE72; stroke-width:100; stroke-opacity:1; 
stroke-linecap:round; stroke-linejoin:round;fill:none"
d="M 18000,27000
17750,26750
17500,27000
17750,27250
Z" /> 
</g>
<g style="fill:#C3AE72; fill-opacity:0.0; 
stroke:#C3AE72; stroke-width:60; stroke-opacity:1; 
stroke-linecap:round; stroke-linejoin:round;">
<text x="17400" y="29250"
textLength="1890" font-size="660" lengthAdjust="spacingAndGlyphs"
text-anchor="end" opacity="0">Bus7</text>
<path d="M15820 28960
L15890 28980
L15910 29010
L15940 29050
L15940 29130
L15910 29170
L15890 29200
L15840 29220
L15650 29220
L15650 28720
L15820 28720
L15870 28750
L15890 28770
L15910 28820
L15910 28860
L15890 28910
L15870 28940
L15820 28960
L15650 28960
" />
<path d="M16370 28890
L16370 29220
" />
<path d="M16150 28890
L16150 29150
L16170 29200
L16220 29220
L16290 29220
L16340 29200
L16370 29170
" />
<path d="M16580 29200
L16630 29220
L16720 29220
L16770 29200
L16790 29150
L16790 29130
L16770 29080
L16720 29050
L16650 29050
L16600 29030
L16580 28980
L16580 28960
L16600 28910
L16650 28890
L16720 28890
L16770 28910
" />
<path d="M16960 28720
L17290 28720
L17080 29220
" />
</g>
<g style="fill:#C3AE72; fill-opacity:0.0; 
stroke:#C3AE72; stroke-width:100; stroke-opacity:1; 
stroke-linecap:round; stroke-linejoin:round;">
<path style="fill:#C3AE72; fill-opacity:0.0; 
stroke:#C3AE72; stroke-width:100; stroke-opacity:1; 
stroke-linecap:round; stroke-linejoin:round;fill:none"
d="M 18000,29000
17750,28750
17500,29000
17750,29250
Z" /> 
</g>
<g style="fill:#C3AE72; fill-opacity:0.0; 
stroke:#C3AE72; stroke-width:60; stroke-opacity:1; 
stroke-linecap:round; stroke-linejoin:round;">
<text x="26400" y="17250"
textLength="510" font-size="660" lengthAdjust="spacingAndGlyphs"
text-anchor="end" opacity="0">E</text>
<path d="M26030 16960
L26200 16960
" />
<path d="M26270 17220
L26030 17220
L26030 16720
L26270 16720
" />
</g>
<g style="fill:#C3AE72; fill-opacity:0.0; 
stroke:#C3AE72; stroke-width:100; stroke-opacity:1; 
stroke-linecap:round; stroke-linejoin:round;">
<path style="fill:#C3AE72; fill-opacity:0.0; 
stroke:#C3AE72; stroke-width:100; stroke-opacity:1; 
stroke-linecap:round; stroke-linejoin:round;fill:none"
d="M 27000,17000
26750,16750
26500,16750
26500,17250
26750,17250
Z" /> 
</g>
<g style="fill:#C3AE72; fill-opacity:0.0; 
stroke:#C3AE72; stroke-width:60; stroke-opacity:1; 
stroke-linecap:round; stroke-linejoin:round;">
<text x="25900" y="18250"
textLength="1460" font-size="660" lengthAdjust="spacingAndGlyphs"
text-anchor="end" opacity="0">R\W</text>
<path d="M24870 18220
L24700 17980
" />
<path d="M24580 18220
L24580 17720
L24770 17720
L24820 17750
L24840 17770
L24870 17820
L24870 17890
L24840 17940
L24820 17960
L24770 17980
L24580 17980
" />
<path d="M24910 17670
L25340 18320
" />
<path d="M25370 17720
L25480 18220
L25580 17860
L25670 18220
L25790 17720
" />
</g>
<g style="fill:#C3AE72; fill-opacity:0.0; 
stroke:#C3AE72; stroke-width:100; stroke-opacity:1; 
stroke-linecap:round; stroke-linejoin:round;">
<path style="fill:#C3AE72; fill-opacity:0.0; 
stroke:#C3AE72; stroke-width:100; stroke-opacity:1; 
stroke-linecap:round; stroke-linejoin:round;fill:none"
d="M 26500,18000
26250,17750
26000,17750
26000,18250
26250,18250
Z" /> 
</g>
<g style="fill:#C3AE72; fill-opacity:0.0; 
stroke:#C3AE72; stroke-width:60; stroke-opacity:1; 
stroke-linecap:round; stroke-linejoin:round;">
<text x="25400" y="19250"
textLength="1040" font-size="660" lengthAdjust="spacingAndGlyphs"
text-anchor="end" opacity="0">RS</text>
<path d="M24790 19220
L24630 18980
" />
<path d="M24510 19220
L24510 18720
L24700 18720
L24750 18750
L24770 18770
L24790 18820
L24790 18890
L24770 18940
L24750 18960
L24700 18980
L24510 18980
" />
<path d="M24980 19200
L25060 19220
L25170 19220
L25220 19200
L25250 19170
L25270 19130
L25270 19080
L25250 19030
L25220 19010
L25170 18980
L25080 18960
L25030 18940
L25010 18910
L24980 18860
L24980 18820
L25010 18770
L25030 18750
L25080 18720
L25200 18720
L25270 18750
" />
</g>
<g style="fill:#C3AE72; fill-opacity:0.0; 
stroke:#C3AE72; stroke-width:100; stroke-opacity:1; 
stroke-linecap:round; stroke-linejoin:round;">
<path style="fill:#C3AE72; fill-opacity:0.0; 
stroke:#C3AE72; stroke-width:100; stroke-opacity:1; 
stroke-linecap:round; stroke-linejoin:round;fill:none"
d="M 26000,19000
25750,18750
25500,18750
25500,19250
25750,19250
Z" /> 
</g>
<g style="fill:#C3AE72; fill-opacity:0.0; 
stroke:#C3AE72; stroke-width:0; stroke-opacity:1; 
stroke-linecap:round; stroke-linejoin:round;">
</g>
<g style="fill:#8DD272; fill-opacity:0.0; 
stroke:#8DD272; stroke-width:0; stroke-opacity:1; 
stroke-linecap:round; stroke-linejoin:round;">
</g>
<g style="fill:#8DD272; fill-opacity:1.0; 
stroke:#8DD272; stroke-width:100; stroke-opacity:1; 
stroke-linecap:round; stroke-linejoin:round;">
<circle cx="36000" cy="31500" r="200" /> 
</g>
<g style="fill:#8DD272; fill-opacity:1.0; 
stroke:#8DD272; stroke-width:0; stroke-opacity:1; 
stroke-linecap:round; stroke-linejoin:round;">
</g>
<g style="fill:#8DD272; fill-opacity:1.0; 
stroke:#8DD272; stroke-width:100; stroke-opacity:1; 
stroke-linecap:round; stroke-linejoin:round;">
<circle cx="40000" cy="31500" r="200" /> 
</g>
<g style="fill:#8DD272; fill-opacity:1.0; 
stroke:#8DD272; stroke-width:0; stroke-opacity:1; 
stroke-linecap:round; stroke-linejoin:round;">
</g>
<g style="fill:#8DD272; fill-opacity:1.0; 
stroke:#8DD272; stroke-width:100; stroke-opacity:1; 
stroke-linecap:round; stroke-linejoin:round;">
<circle cx="36000" cy="12000" r="200" /> 
</g>
<g style="fill:#8DD272; fill-opacity:1.0; 
stroke:#8DD272; stroke-width:60; stroke-opacity:1; 
stroke-linecap:round; stroke-linejoin:round;">
</g>
<g style="fill:#95DBDF; fill-opacity:1.0; 
stroke:#95DBDF; stroke-width:60; stroke-opacity:1; 
stroke-linecap:round; stroke-linejoin:round;">
</g>
<g style="fill:#95DBDF; fill-opacity:0.0; 
stroke:#95DBDF; stroke-width:60; stroke-opacity:1; 
stroke-linecap:round; stroke-linejoin:round;">
<path d="M43760 15760
L44240 16240
" />
<path d="M44240 15760
L43760 16240
" />
</g> 
</svg>
